<svg xmlns="http://www.w3.org/2000/svg" viewBox="0 0 1600 520" width="1600" height="520"><rect width="1600" height="520" fill="#000000"/><defs><linearGradient id="g" gradientUnits="userSpaceOnUse" x1="16" y1="88" x2="86" y2="14"><stop offset="0" stop-color="#0b8fb5"/><stop offset="1" stop-color="#7ce9f5"/></linearGradient><linearGradient id="gg" gradientUnits="userSpaceOnUse" x1="257.00" y1="64.00" x2="433.20" y2="36.00"><stop offset="0" stop-color="#0b8fb5"/><stop offset="1" stop-color="#7ce9f5"/></linearGradient><radialGradient id="glow" cx="0.2" cy="0.5" r="0.6"><stop offset="0" stop-color="#0b8fb5" stop-opacity="0.3"/><stop offset="1" stop-color="#0b8fb5" stop-opacity="0"/></radialGradient><linearGradient id="arc" x1="0" y1="1" x2="1" y2="0"><stop offset="0" stop-color="#0b8fb5"/><stop offset="1" stop-color="#7ce9f5"/></linearGradient><linearGradient id="hair" x1="0" x2="1"><stop offset="0" stop-color="#7ce9f5" stop-opacity="0.9"/><stop offset="1" stop-color="#7ce9f5" stop-opacity="0"/></linearGradient></defs><rect width="1600" height="520" fill="url(#glow)"/><circle cx="1300" cy="260.0" r="96" fill="none" stroke="#7ce9f5" stroke-opacity="0.16" stroke-width="1.5"/><circle cx="1300" cy="260.0" r="150" fill="none" stroke="#7ce9f5" stroke-opacity="0.12" stroke-width="1.5"/><circle cx="1300" cy="260.0" r="204" fill="none" stroke="#7ce9f5" stroke-opacity="0.08" stroke-width="1.5"/><path d="M1170.1 185.0 A150 150 0 0 1 1441.0 208.7" fill="none" stroke="url(#arc)" stroke-width="3" stroke-linecap="round"/><circle cx="1373.5" cy="321.7" r="9" fill="#3fbf7f" opacity="0.9"/><rect x="1389.5" y="317.7" width="54" height="8" rx="4" fill="#232323"/><circle cx="1370.4" cy="127.6" r="9" fill="#8fa6ff" opacity="0.9"/><rect x="1386.4" y="123.6" width="38" height="8" rx="4" fill="#232323"/><circle cx="1204.2" cy="440.1" r="9" fill="#f0a830" opacity="0.9"/><rect x="1220.2" y="436.1" width="46" height="8" rx="4" fill="#232323"/><circle cx="1152.3" cy="286.0" r="9" fill="#3fbf7f" opacity="0.9"/><rect x="1168.3" y="282.0" width="30" height="8" rx="4" fill="#232323"/><g transform="translate(96 108) scale(1.55)"><path fill="url(#g)" fill-rule="evenodd" d="M85.21 42.52A36 36 0 1 1 55.01 14.35L63.62 23.27L53.34 26.23A24 24 0 1 0 73.48 45.01ZM41.5 50a8.5 8.5 0 1 0 17 0a8.5 8.5 0 1 0 -17 0Z"/><path d="M118.64 64V52.92L119.8 56.12L107.64 36H113.2L122.96 52.2H119.84L129.68 36H134.8L122.64 56.12L123.84 52.92V64ZM143.4 64V36H148.6V64ZM161.36 64V36H181.8V40.36H166.56V59.64H182.36V64ZM166.16 51.92V47.64H180.08V51.92ZM193.36 64V36H198.56V59.6H213.2V64ZM222.52 64V36H234.76Q239.32 36 242.76 37.76Q246.2 39.52 248.12 42.64Q250.04 45.76 250.04 50Q250.04 54.2 248.12 57.34Q246.2 60.48 242.76 62.24Q239.32 64 234.76 64ZM227.72 59.6H234.52Q237.64 59.6 239.96 58.4Q242.28 57.2 243.54 55.04Q244.8 52.88 244.8 50Q244.8 47.08 243.54 44.94Q242.28 42.8 239.96 41.6Q237.64 40.4 234.52 40.4H227.72Z" fill="#e8e8e8"/><path d="M273.72 64.4Q270.52 64.4 267.78 63.34Q265.04 62.28 263.02 60.34Q261 58.4 259.88 55.76Q258.76 53.12 258.76 50Q258.76 46.88 259.88 44.24Q261 41.6 263.04 39.66Q265.08 37.72 267.8 36.66Q270.52 35.6 273.76 35.6Q277.2 35.6 280.04 36.78Q282.88 37.96 284.84 40.28L281.48 43.44Q279.96 41.8 278.08 40.98Q276.2 40.16 274 40.16Q271.8 40.16 269.98 40.88Q268.16 41.6 266.82 42.92Q265.48 44.24 264.74 46.04Q264 47.84 264 50Q264 52.16 264.74 53.96Q265.48 55.76 266.82 57.08Q268.16 58.4 269.98 59.12Q271.8 59.84 274 59.84Q276.2 59.84 278.08 59.02Q279.96 58.2 281.48 56.52L284.84 59.72Q282.88 62 280.04 63.2Q277.2 64.4 273.72 64.4ZM294.68 64V36H299.88V64ZM312.64 64V36H324.12Q329.72 36 332.9 38.64Q336.08 41.28 336.08 45.96Q336.08 49.04 334.64 51.26Q333.2 53.48 330.54 54.66Q327.88 55.84 324.16 55.84H315.52L317.84 53.48V64ZM330.96 64 323.88 53.84H329.44L336.56 64ZM317.84 54.04 315.52 51.56H323.92Q327.36 51.56 329.1 50.08Q330.84 48.6 330.84 45.96Q330.84 43.28 329.1 41.84Q327.36 40.4 323.92 40.4H315.52L317.84 37.84ZM360.04 64.4Q356.84 64.4 354.1 63.34Q351.36 62.28 349.34 60.34Q347.32 58.4 346.2 55.76Q345.08 53.12 345.08 50Q345.08 46.88 346.2 44.24Q347.32 41.6 349.36 39.66Q351.4 37.72 354.12 36.66Q356.84 35.6 360.08 35.6Q363.52 35.6 366.36 36.78Q369.2 37.96 371.16 40.28L367.8 43.44Q366.28 41.8 364.4 40.98Q362.52 40.16 360.32 40.16Q358.12 40.16 356.3 40.88Q354.48 41.6 353.14 42.92Q351.8 44.24 351.06 46.04Q350.32 47.84 350.32 50Q350.32 52.16 351.06 53.96Q351.8 55.76 353.14 57.08Q354.48 58.4 356.3 59.12Q358.12 59.84 360.32 59.84Q362.52 59.84 364.4 59.02Q366.28 58.2 367.8 56.52L371.16 59.72Q369.2 62 366.36 63.2Q363.52 64.4 360.04 64.4ZM381 64V36H386.2V59.6H400.84V64ZM410.16 64V36H430.6V40.36H415.36V59.64H431.16V64ZM414.96 51.92V47.64H428.88V51.92Z" fill="url(#gg)"/></g><path d="M122.84 366H104.09V335.29H122.84V338.54H107.79V348.84H121.96V352.1H107.79V362.74H122.84ZM138.5 366H134.41L126.44 343.3H129.96L133.92 354.56L136.39 362.3H136.61L139.07 354.56L143.12 343.3H146.51ZM159.58 366.53Q156.5 366.53 154.21 365.05Q151.92 363.58 150.64 360.92Q149.37 358.26 149.37 354.65Q149.37 351.04 150.64 348.38Q151.92 345.72 154.21 344.24Q156.5 342.77 159.58 342.77Q162.61 342.77 164.81 344.2Q167.01 345.63 168.2 348.14Q169.39 350.64 169.39 353.86V355.53H153.06V356.58Q153.06 359.53 154.85 361.49Q156.63 363.45 159.8 363.45Q161.95 363.45 163.56 362.44Q165.16 361.42 166.04 359.53L168.55 361.34Q167.45 363.62 165.12 365.08Q162.79 366.53 159.58 366.53ZM159.58 345.72Q157.68 345.72 156.21 346.6Q154.74 347.48 153.9 349.04Q153.06 350.6 153.06 352.58V352.89H165.6V352.4Q165.6 350.38 164.86 348.88Q164.11 347.39 162.74 346.55Q161.38 345.72 159.58 345.72ZM178.72 366H175.2V343.3H178.72V347.48H178.94Q179.33 346.38 180.17 345.43Q181 344.48 182.32 343.89Q183.64 343.3 185.49 343.3H186.86V346.82H184.79Q182.9 346.82 181.53 347.32Q180.17 347.83 179.44 348.66Q178.72 349.5 178.72 350.6ZM199.84 358.74 205.34 343.3H208.81L198.65 371.28Q198.16 372.64 197.57 373.41Q196.98 374.18 196.01 374.49Q195.04 374.8 193.37 374.8H191.56V371.72H195.13L196.84 366.88L188.35 343.3H191.87L197.33 358.74L198.38 362.44H198.6ZM222.72 366H218.32Q216.51 366 215.54 364.94Q214.58 363.89 214.58 362.26V346.38H210.84V343.3H212.95Q214.09 343.3 214.51 342.83Q214.93 342.37 214.93 341.23V337H218.1V343.3H223.07V346.38H218.1V362.92H222.72ZM228.74 366V333.44H232.26V346.99H232.44Q233.28 345.06 234.79 343.91Q236.31 342.77 238.86 342.77Q242.38 342.77 244.43 345.03Q246.48 347.3 246.48 351.44V366H242.96V352.05Q242.96 349.02 241.66 347.48Q240.36 345.94 237.81 345.94Q236.4 345.94 235.12 346.4Q233.85 346.86 233.06 347.83Q232.26 348.8 232.26 350.25V366ZM255.5 337.97Q254.4 337.97 253.87 337.42Q253.34 336.87 253.34 335.99V335.42Q253.34 334.54 253.87 333.99Q254.4 333.44 255.5 333.44Q256.64 333.44 257.15 333.99Q257.65 334.54 257.65 335.42V335.99Q257.65 336.87 257.15 337.42Q256.64 337.97 255.5 337.97ZM253.74 366V343.3H257.26V366ZM268.26 366H264.74V343.3H268.26V346.99H268.43Q269.27 345.06 270.79 343.91Q272.3 342.77 274.86 342.77Q278.38 342.77 280.42 345.03Q282.47 347.3 282.47 351.44V366H278.95V352.05Q278.95 349.02 277.65 347.48Q276.35 345.94 273.8 345.94Q272.39 345.94 271.12 346.4Q269.84 346.86 269.05 347.83Q268.26 348.8 268.26 350.25ZM308.87 368.51Q308.87 370.84 307.64 372.36Q306.4 373.88 303.96 374.6Q301.52 375.33 297.87 375.33Q294.35 375.33 292.13 374.67Q289.9 374.01 288.89 372.75Q287.88 371.5 287.88 369.74Q287.88 367.89 288.85 366.84Q289.82 365.78 291.49 365.34V364.86Q290.52 364.37 289.99 363.6Q289.46 362.83 289.46 361.69Q289.46 359.97 290.56 359.07Q291.66 358.17 293.38 357.73V357.55Q291.36 356.58 290.23 354.78Q289.11 352.98 289.11 350.6Q289.11 348.27 290.17 346.51Q291.22 344.75 293.16 343.76Q295.1 342.77 297.65 342.77Q298.88 342.77 299.96 342.99Q301.04 343.21 301.96 343.65V343.25Q301.96 341.93 302.58 341.07Q303.19 340.22 304.6 340.22H307.99V343.3H303.68V344.75Q304.91 345.8 305.59 347.3Q306.27 348.8 306.27 350.6Q306.27 352.89 305.22 354.67Q304.16 356.45 302.22 357.44Q300.29 358.43 297.69 358.43Q297.12 358.43 296.55 358.37Q295.98 358.3 295.49 358.21Q294.39 358.52 293.45 359.11Q292.5 359.71 292.5 360.76Q292.5 361.78 293.47 362.13Q294.44 362.48 295.98 362.48H300.82Q305.04 362.48 306.95 364.09Q308.87 365.69 308.87 368.51ZM305.57 368.77Q305.57 367.41 304.53 366.59Q303.5 365.78 300.86 365.78H293.29Q292.19 366.26 291.69 367.03Q291.18 367.8 291.18 368.86Q291.18 370.36 292.3 371.41Q293.42 372.47 296.11 372.47H299.36Q302.31 372.47 303.94 371.54Q305.57 370.62 305.57 368.77ZM297.69 355.62Q299.94 355.62 301.26 354.54Q302.58 353.46 302.58 351.22V349.98Q302.58 347.74 301.26 346.66Q299.94 345.58 297.69 345.58Q295.45 345.58 294.13 346.66Q292.81 347.74 292.81 349.98V351.22Q292.81 353.46 294.13 354.54Q295.45 355.62 297.69 355.62ZM331.84 358.74 337.34 343.3H340.81L330.65 371.28Q330.16 372.64 329.57 373.41Q328.98 374.18 328.01 374.49Q327.04 374.8 325.37 374.8H323.56V371.72H327.13L328.84 366.88L320.35 343.3H323.87L329.33 358.74L330.38 362.44H330.6ZM353.88 366.53Q350.84 366.53 348.53 365.05Q346.22 363.58 344.93 360.92Q343.63 358.26 343.63 354.65Q343.63 351.04 344.93 348.38Q346.22 345.72 348.53 344.24Q350.84 342.77 353.88 342.77Q356.92 342.77 359.23 344.24Q361.54 345.72 362.83 348.38Q364.13 351.04 364.13 354.65Q364.13 358.26 362.83 360.92Q361.54 363.58 359.23 365.05Q356.92 366.53 353.88 366.53ZM353.88 363.4Q356.74 363.4 358.54 361.64Q360.35 359.88 360.35 356.28V353.02Q360.35 349.41 358.54 347.65Q356.74 345.89 353.88 345.89Q351.06 345.89 349.24 347.65Q347.41 349.41 347.41 353.02V356.28Q347.41 359.88 349.24 361.64Q351.06 363.4 353.88 363.4ZM383.93 366V362.3H383.76Q383.1 363.93 381.67 365.23Q380.24 366.53 377.38 366.53Q373.9 366.53 371.81 364.26Q369.72 362 369.72 357.86V343.3H373.24V357.24Q373.24 360.28 374.56 361.82Q375.88 363.36 378.43 363.36Q379.84 363.36 381.09 362.9Q382.35 362.44 383.14 361.47Q383.93 360.5 383.93 359V343.3H387.45V366ZM405.32 366V333.44H408.84V346.99H409.01Q409.85 345.06 411.37 343.91Q412.88 342.77 415.44 342.77Q418.96 342.77 421 345.03Q423.05 347.3 423.05 351.44V366H419.53V352.05Q419.53 349.02 418.23 347.48Q416.93 345.94 414.38 345.94Q412.97 345.94 411.7 346.4Q410.42 346.86 409.63 347.83Q408.84 348.8 408.84 350.25V366ZM438.89 366.53Q435.85 366.53 433.54 365.05Q431.23 363.58 429.93 360.92Q428.64 358.26 428.64 354.65Q428.64 351.04 429.93 348.38Q431.23 345.72 433.54 344.24Q435.85 342.77 438.89 342.77Q441.92 342.77 444.23 344.24Q446.54 345.72 447.84 348.38Q449.14 351.04 449.14 354.65Q449.14 358.26 447.84 360.92Q446.54 363.58 444.23 365.05Q441.92 366.53 438.89 366.53ZM438.89 363.4Q441.75 363.4 443.55 361.64Q445.36 359.88 445.36 356.28V353.02Q445.36 349.41 443.55 347.65Q441.75 345.89 438.89 345.89Q436.07 345.89 434.25 347.65Q432.42 349.41 432.42 353.02V356.28Q432.42 359.88 434.25 361.64Q436.07 363.4 438.89 363.4ZM461.81 366H458.69Q456.88 366 455.92 364.97Q454.95 363.93 454.95 362.35V333.44H458.47V362.92H461.81ZM481.44 366V362.3H481.26Q480.25 364.42 478.6 365.47Q476.95 366.53 474.62 366.53Q471.8 366.53 469.71 365.08Q467.62 363.62 466.5 360.94Q465.38 358.26 465.38 354.65Q465.38 351 466.5 348.33Q467.62 345.67 469.71 344.22Q471.8 342.77 474.62 342.77Q476.95 342.77 478.66 343.8Q480.38 344.84 481.26 346.99H481.44V333.44H484.96V366ZM475.58 363.36Q477.21 363.36 478.53 362.81Q479.85 362.26 480.64 361.23Q481.44 360.19 481.44 358.74V350.29Q481.44 349.02 480.64 348.05Q479.85 347.08 478.53 346.51Q477.21 345.94 475.58 345.94Q472.64 345.94 470.9 347.81Q469.16 349.68 469.16 352.71V356.58Q469.16 359.62 470.9 361.49Q472.64 363.36 475.58 363.36ZM494.68 360.85Q496.09 360.85 496.73 361.58Q497.36 362.3 497.36 363.45V364.06Q497.36 365.82 496.31 368.02Q495.25 370.22 493.36 371.85H490.41Q491.73 370.44 492.55 369.19Q493.36 367.94 493.71 366.4Q492.83 366.18 492.41 365.56Q492 364.94 492 364.06V363.45Q492 362.3 492.66 361.58Q493.32 360.85 494.68 360.85ZM523.32 366.53Q520.24 366.53 517.96 365.05Q515.67 363.58 514.39 360.92Q513.12 358.26 513.12 354.65Q513.12 351.04 514.39 348.38Q515.67 345.72 517.96 344.24Q520.24 342.77 523.32 342.77Q526.36 342.77 528.56 344.2Q530.76 345.63 531.95 348.14Q533.14 350.64 533.14 353.86V355.53H516.81V356.58Q516.81 359.53 518.59 361.49Q520.38 363.45 523.54 363.45Q525.7 363.45 527.31 362.44Q528.91 361.42 529.79 359.53L532.3 361.34Q531.2 363.62 528.87 365.08Q526.54 366.53 523.32 366.53ZM523.32 345.72Q521.43 345.72 519.96 346.6Q518.48 347.48 517.65 349.04Q516.81 350.6 516.81 352.58V352.89H529.35V352.4Q529.35 350.38 528.6 348.88Q527.86 347.39 526.49 346.55Q525.13 345.72 523.32 345.72ZM557.42 366H555.44Q554.04 366 553.16 365.41Q552.28 364.81 551.88 363.76Q551.48 362.7 551.48 361.34V361.03L552.85 362.3H551.31Q550.6 364.37 548.87 365.45Q547.13 366.53 544.75 366.53Q541.14 366.53 539.14 364.68Q537.14 362.83 537.14 359.66Q537.14 357.51 538.2 356.03Q539.25 354.56 541.39 353.79Q543.52 353.02 546.82 353.02H551.31V350.78Q551.31 348.36 549.99 347.08Q548.67 345.8 545.94 345.8Q543.92 345.8 542.51 346.73Q541.1 347.65 540.18 349.19L538.06 347.21Q538.99 345.41 541.01 344.09Q543.04 342.77 546.12 342.77Q550.21 342.77 552.52 344.79Q554.83 346.82 554.83 350.42V362.92H557.42ZM551.31 355.66H546.64Q543.65 355.66 542.24 356.54Q540.84 357.42 540.84 359.09V360.02Q540.84 361.69 542.07 362.61Q543.3 363.54 545.32 363.54Q547.08 363.54 548.43 362.99Q549.77 362.44 550.54 361.49Q551.31 360.54 551.31 359.4ZM565.96 366H562.44V343.3H565.96V347.48H566.18Q566.58 346.38 567.41 345.43Q568.25 344.48 569.57 343.89Q570.89 343.3 572.74 343.3H574.1V346.82H572.03Q570.14 346.82 568.78 347.32Q567.41 347.83 566.69 348.66Q565.96 349.5 565.96 350.6ZM582.11 366H578.59V343.3H582.11V346.99H582.28Q583.12 345.06 584.64 343.91Q586.16 342.77 588.71 342.77Q592.23 342.77 594.27 345.03Q596.32 347.3 596.32 351.44V366H592.8V352.05Q592.8 349.02 591.5 347.48Q590.2 345.94 587.65 345.94Q586.24 345.94 584.97 346.4Q583.69 346.86 582.9 347.83Q582.11 348.8 582.11 350.25ZM605.34 337.97Q604.24 337.97 603.71 337.42Q603.18 336.87 603.18 335.99V335.42Q603.18 334.54 603.71 333.99Q604.24 333.44 605.34 333.44Q606.48 333.44 606.99 333.99Q607.5 334.54 607.5 335.42V335.99Q607.5 336.87 606.99 337.42Q606.48 337.97 605.34 337.97ZM603.58 366V343.3H607.1V366ZM618.1 366H614.58V343.3H618.1V346.99H618.28Q619.11 345.06 620.63 343.91Q622.15 342.77 624.7 342.77Q628.22 342.77 630.27 345.03Q632.31 347.3 632.31 351.44V366H628.79V352.05Q628.79 349.02 627.49 347.48Q626.2 345.94 623.64 345.94Q622.24 345.94 620.96 346.4Q619.68 346.86 618.89 347.83Q618.1 348.8 618.1 350.25ZM658.71 368.51Q658.71 370.84 657.48 372.36Q656.25 373.88 653.81 374.6Q651.36 375.33 647.71 375.33Q644.19 375.33 641.97 374.67Q639.75 374.01 638.74 372.75Q637.72 371.5 637.72 369.74Q637.72 367.89 638.69 366.84Q639.66 365.78 641.33 365.34V364.86Q640.36 364.37 639.84 363.6Q639.31 362.83 639.31 361.69Q639.31 359.97 640.41 359.07Q641.51 358.17 643.22 357.73V357.55Q641.2 356.58 640.08 354.78Q638.96 352.98 638.96 350.6Q638.96 348.27 640.01 346.51Q641.07 344.75 643 343.76Q644.94 342.77 647.49 342.77Q648.72 342.77 649.8 342.99Q650.88 343.21 651.8 343.65V343.25Q651.8 341.93 652.42 341.07Q653.04 340.22 654.44 340.22H657.83V343.3H653.52V344.75Q654.75 345.8 655.43 347.3Q656.12 348.8 656.12 350.6Q656.12 352.89 655.06 354.67Q654 356.45 652.07 357.44Q650.13 358.43 647.54 358.43Q646.96 358.43 646.39 358.37Q645.82 358.3 645.34 358.21Q644.24 358.52 643.29 359.11Q642.34 359.71 642.34 360.76Q642.34 361.78 643.31 362.13Q644.28 362.48 645.82 362.48H650.66Q654.88 362.48 656.8 364.09Q658.71 365.69 658.71 368.51ZM655.41 368.77Q655.41 367.41 654.38 366.59Q653.34 365.78 650.7 365.78H643.14Q642.04 366.26 641.53 367.03Q641.02 367.8 641.02 368.86Q641.02 370.36 642.15 371.41Q643.27 372.47 645.95 372.47H649.21Q652.16 372.47 653.78 371.54Q655.41 370.62 655.41 368.77ZM647.54 355.62Q649.78 355.62 651.1 354.54Q652.42 353.46 652.42 351.22V349.98Q652.42 347.74 651.1 346.66Q649.78 345.58 647.54 345.58Q645.29 345.58 643.97 346.66Q642.65 347.74 642.65 349.98V351.22Q642.65 353.46 643.97 354.54Q645.29 355.62 647.54 355.62ZM665.05 366.53Q663.68 366.53 663.02 365.8Q662.36 365.08 662.36 363.98V363.4Q662.36 362.26 663.02 361.56Q663.68 360.85 665.05 360.85Q666.46 360.85 667.09 361.56Q667.73 362.26 667.73 363.4V363.98Q667.73 365.08 667.09 365.8Q666.46 366.53 665.05 366.53Z" fill="#e8e8e8" opacity="0.92"/><path d="M102.05 412V396.64H107.19Q109.11 396.64 110.53 397.49Q111.95 398.34 112.72 400.04Q113.49 401.75 113.49 404.32Q113.49 406.9 112.72 408.6Q111.95 410.31 110.53 411.15Q109.11 412 107.19 412ZM103.89 410.37H107.19Q108.47 410.37 109.44 409.8Q110.41 409.23 110.96 408.16Q111.51 407.09 111.51 405.58V403.07Q111.51 401.55 110.96 400.47Q110.41 399.39 109.44 398.83Q108.47 398.27 107.19 398.27H103.89ZM120.92 412.26Q119.4 412.26 118.25 411.53Q117.09 410.79 116.44 409.46Q115.8 408.13 115.8 406.32Q115.8 404.52 116.44 403.19Q117.09 401.86 118.25 401.12Q119.4 400.38 120.92 400.38Q122.44 400.38 123.59 401.12Q124.75 401.86 125.4 403.19Q126.05 404.52 126.05 406.32Q126.05 408.13 125.4 409.46Q124.75 410.79 123.59 411.53Q122.44 412.26 120.92 412.26ZM120.92 410.7Q122.35 410.7 123.25 409.82Q124.16 408.94 124.16 407.14V405.51Q124.16 403.71 123.25 402.83Q122.35 401.95 120.92 401.95Q119.51 401.95 118.6 402.83Q117.69 403.71 117.69 405.51V407.14Q117.69 408.94 118.6 409.82Q119.51 410.7 120.92 410.7ZM132.38 412H130.82Q129.92 412 129.44 411.48Q128.95 410.97 128.95 410.17V395.72H130.71V410.46H132.38ZM138.37 412H136.81Q135.9 412 135.42 411.48Q134.94 410.97 134.94 410.17V395.72H136.7V410.46H138.37ZM150.16 412H149.17Q148.47 412 148.03 411.7Q147.59 411.41 147.39 410.88Q147.19 410.35 147.19 409.67V409.51L147.87 410.15H147.1Q146.75 411.19 145.88 411.73Q145.01 412.26 143.82 412.26Q142.02 412.26 141.02 411.34Q140.02 410.42 140.02 408.83Q140.02 407.75 140.55 407.02Q141.07 406.28 142.14 405.89Q143.21 405.51 144.86 405.51H147.1V404.39Q147.1 403.18 146.44 402.54Q145.78 401.9 144.42 401.9Q143.41 401.9 142.7 402.36Q142 402.83 141.54 403.6L140.48 402.61Q140.94 401.7 141.95 401.04Q142.97 400.38 144.51 400.38Q146.55 400.38 147.71 401.4Q148.86 402.41 148.86 404.21V410.46H150.16ZM147.1 406.83H144.77Q143.27 406.83 142.57 407.27Q141.87 407.71 141.87 408.55V409.01Q141.87 409.84 142.48 410.31Q143.1 410.77 144.11 410.77Q144.99 410.77 145.66 410.49Q146.33 410.22 146.72 409.75Q147.1 409.27 147.1 408.7ZM154.43 412H152.67V400.65H154.43V402.74H154.54Q154.74 402.19 155.15 401.72Q155.57 401.24 156.23 400.95Q156.89 400.65 157.82 400.65H158.5V402.41H157.46Q156.52 402.41 155.84 402.66Q155.15 402.91 154.79 403.33Q154.43 403.75 154.43 404.3ZM164.15 412.26Q162.59 412.26 161.51 411.66Q160.43 411.05 159.66 410.04L160.92 409.03Q161.58 409.84 162.39 410.31Q163.21 410.77 164.28 410.77Q165.41 410.77 166.03 410.28Q166.66 409.8 166.66 408.92Q166.66 408.26 166.23 407.78Q165.8 407.29 164.68 407.14L163.78 407.01Q162.74 406.85 161.91 406.49Q161.07 406.13 160.6 405.45Q160.13 404.78 160.13 403.73Q160.13 402.03 161.28 401.21Q162.44 400.38 164.17 400.38Q165.1 400.38 165.81 400.6Q166.53 400.82 167.1 401.23Q167.67 401.64 168.13 402.21L166.97 403.27Q166.59 402.74 165.87 402.31Q165.14 401.88 164.04 401.88Q162.96 401.88 162.39 402.35Q161.82 402.83 161.82 403.64Q161.82 404.45 162.38 404.84Q162.94 405.22 164 405.4L164.88 405.53Q166.77 405.82 167.56 406.62Q168.35 407.42 168.35 408.72Q168.35 409.82 167.85 410.61Q167.34 411.41 166.4 411.84Q165.45 412.26 164.15 412.26ZM172.58 409.43Q173.28 409.43 173.6 409.79Q173.92 410.15 173.92 410.72V411.03Q173.92 411.91 173.39 413.01Q172.86 414.11 171.92 414.93H170.44Q171.1 414.22 171.51 413.6Q171.92 412.97 172.09 412.2Q171.65 412.09 171.45 411.78Q171.24 411.47 171.24 411.03V410.72Q171.24 410.15 171.57 409.79Q171.9 409.43 172.58 409.43ZM186.9 412.26Q185.36 412.26 184.22 411.53Q183.07 410.79 182.43 409.46Q181.8 408.13 181.8 406.32Q181.8 404.52 182.43 403.19Q183.07 401.86 184.22 401.12Q185.36 400.38 186.9 400.38Q188.42 400.38 189.52 401.1Q190.62 401.81 191.21 403.07Q191.81 404.32 191.81 405.93V406.76H183.64V407.29Q183.64 408.77 184.54 409.75Q185.43 410.72 187.01 410.72Q188.09 410.72 188.89 410.22Q189.69 409.71 190.13 408.77L191.39 409.67Q190.84 410.81 189.67 411.54Q188.51 412.26 186.9 412.26ZM186.9 401.86Q185.95 401.86 185.22 402.3Q184.48 402.74 184.06 403.52Q183.64 404.3 183.64 405.29V405.44H189.91V405.2Q189.91 404.19 189.54 403.44Q189.17 402.69 188.48 402.28Q187.8 401.86 186.9 401.86ZM199.42 412H197.22Q196.32 412 195.83 411.47Q195.35 410.94 195.35 410.13V402.19H193.48V400.65H194.53Q195.11 400.65 195.32 400.42Q195.52 400.19 195.52 399.61V397.5H197.11V400.65H199.59V402.19H197.11V410.46H199.42ZM202.43 412V395.72H204.19V402.5H204.28Q204.7 401.53 205.46 400.96Q206.22 400.38 207.49 400.38Q209.25 400.38 210.28 401.52Q211.3 402.65 211.3 404.72V412H209.54V405.03Q209.54 403.51 208.89 402.74Q208.24 401.97 206.96 401.97Q206.26 401.97 205.62 402.2Q204.98 402.43 204.59 402.91Q204.19 403.4 204.19 404.12V412ZM219.2 412.26Q217.66 412.26 216.51 411.53Q215.37 410.79 214.73 409.46Q214.09 408.13 214.09 406.32Q214.09 404.52 214.73 403.19Q215.37 401.86 216.51 401.12Q217.66 400.38 219.2 400.38Q220.71 400.38 221.81 401.1Q222.91 401.81 223.51 403.07Q224.1 404.32 224.1 405.93V406.76H215.94V407.29Q215.94 408.77 216.83 409.75Q217.72 410.72 219.31 410.72Q220.38 410.72 221.19 410.22Q221.99 409.71 222.43 408.77L223.68 409.67Q223.13 410.81 221.97 411.54Q220.8 412.26 219.2 412.26ZM219.2 401.86Q218.25 401.86 217.51 402.3Q216.78 402.74 216.36 403.52Q215.94 404.3 215.94 405.29V405.44H222.21V405.2Q222.21 404.19 221.84 403.44Q221.46 402.69 220.78 402.28Q220.1 401.86 219.2 401.86ZM228.77 412H227.01V400.65H228.77V402.74H228.88Q229.07 402.19 229.49 401.72Q229.91 401.24 230.57 400.95Q231.23 400.65 232.15 400.65H232.84V402.41H231.8Q230.86 402.41 230.17 402.66Q229.49 402.91 229.13 403.33Q228.77 403.75 228.77 404.3ZM236.2 409.43Q236.91 409.43 237.23 409.79Q237.54 410.15 237.54 410.72V411.03Q237.54 411.91 237.02 413.01Q236.49 414.11 235.54 414.93H234.07Q234.73 414.22 235.14 413.6Q235.54 412.97 235.72 412.2Q235.28 412.09 235.07 411.78Q234.86 411.47 234.86 411.03V410.72Q234.86 410.15 235.19 409.79Q235.52 409.43 236.2 409.43ZM246.26 412V395.72H248.02V402.5H248.1Q248.54 401.42 249.4 400.9Q250.26 400.38 251.43 400.38Q252.86 400.38 253.89 401.11Q254.92 401.84 255.49 403.17Q256.05 404.5 256.05 406.32Q256.05 408.13 255.49 409.47Q254.92 410.81 253.89 411.54Q252.86 412.26 251.43 412.26Q250.26 412.26 249.44 411.74Q248.61 411.21 248.1 410.15H248.02V412ZM250.94 410.68Q252.44 410.68 253.3 409.75Q254.15 408.81 254.15 407.29V405.36Q254.15 403.84 253.3 402.9Q252.44 401.97 250.94 401.97Q250.15 401.97 249.48 402.25Q248.81 402.54 248.41 403.02Q248.02 403.51 248.02 404.15V408.37Q248.02 409.1 248.41 409.61Q248.81 410.13 249.48 410.4Q250.15 410.68 250.94 410.68ZM259.9 397.99Q259.35 397.99 259.08 397.71Q258.82 397.44 258.82 397V396.71Q258.82 396.27 259.08 396Q259.35 395.72 259.9 395.72Q260.47 395.72 260.72 396Q260.97 396.27 260.97 396.71V397Q260.97 397.44 260.72 397.71Q260.47 397.99 259.9 397.99ZM259.02 412V400.65H260.78V412ZM269.22 412H267.02Q266.12 412 265.64 411.47Q265.15 410.94 265.15 410.13V402.19H263.28V400.65H264.34Q264.91 400.65 265.12 400.42Q265.33 400.19 265.33 399.61V397.5H266.91V400.65H269.4V402.19H266.91V410.46H269.22ZM276.46 412.26Q274.06 412.26 272.73 410.66Q271.4 409.05 271.4 406.32Q271.4 403.6 272.73 401.99Q274.06 400.38 276.46 400.38Q278.16 400.38 279.19 401.13Q280.22 401.88 280.71 403.05L279.23 403.79Q278.93 402.91 278.21 402.43Q277.5 401.95 276.46 401.95Q274.9 401.95 274.1 402.9Q273.29 403.86 273.29 405.36V407.29Q273.29 408.77 274.1 409.73Q274.9 410.7 276.46 410.7Q277.54 410.7 278.31 410.2Q279.08 409.69 279.54 408.72L280.82 409.58Q280.27 410.79 279.18 411.53Q278.09 412.26 276.46 412.26ZM287.59 412.26Q286.08 412.26 284.92 411.53Q283.77 410.79 283.12 409.46Q282.47 408.13 282.47 406.32Q282.47 404.52 283.12 403.19Q283.77 401.86 284.92 401.12Q286.08 400.38 287.59 400.38Q289.11 400.38 290.27 401.12Q291.42 401.86 292.07 403.19Q292.72 404.52 292.72 406.32Q292.72 408.13 292.07 409.46Q291.42 410.79 290.27 411.53Q289.11 412.26 287.59 412.26ZM287.59 410.7Q289.02 410.7 289.93 409.82Q290.83 408.94 290.83 407.14V405.51Q290.83 403.71 289.93 402.83Q289.02 401.95 287.59 401.95Q286.19 401.95 285.27 402.83Q284.36 403.71 284.36 405.51V407.14Q284.36 408.94 285.27 409.82Q286.19 410.7 287.59 410.7ZM296.5 397.99Q295.95 397.99 295.69 397.71Q295.43 397.44 295.43 397V396.71Q295.43 396.27 295.69 396Q295.95 395.72 296.5 395.72Q297.08 395.72 297.33 396Q297.58 396.27 297.58 396.71V397Q297.58 397.44 297.33 397.71Q297.08 397.99 296.5 397.99ZM295.62 412V400.65H297.38V412ZM302.88 412H301.12V400.65H302.88V402.5H302.97Q303.39 401.53 304.15 400.96Q304.91 400.38 306.18 400.38Q307.94 400.38 308.97 401.52Q309.99 402.65 309.99 404.72V412H308.23V405.03Q308.23 403.51 307.58 402.74Q306.93 401.97 305.66 401.97Q304.95 401.97 304.31 402.2Q303.68 402.43 303.28 402.91Q302.88 403.4 302.88 404.12ZM314.74 412.26Q314.06 412.26 313.73 411.9Q313.4 411.54 313.4 410.99V410.7Q313.4 410.13 313.73 409.78Q314.06 409.43 314.74 409.43Q315.45 409.43 315.76 409.78Q316.08 410.13 316.08 410.7V410.99Q316.08 411.54 315.76 411.9Q315.45 412.26 314.74 412.26ZM326.82 412H324.97V396.64H331.09Q332.47 396.64 333.43 397.18Q334.39 397.72 334.88 398.7Q335.38 399.68 335.38 401.04Q335.38 402.39 334.88 403.38Q334.39 404.37 333.43 404.9Q332.47 405.44 331.09 405.44H326.82ZM326.82 398.27V403.82H331.09Q331.81 403.82 332.33 403.56Q332.85 403.31 333.12 402.81Q333.4 402.32 333.4 401.62V400.47Q333.4 399.77 333.12 399.27Q332.85 398.78 332.33 398.52Q331.81 398.27 331.09 398.27ZM341.56 412H340Q339.1 412 338.61 411.48Q338.13 410.97 338.13 410.17V395.72H339.89V410.46H341.56ZM353.35 412H352.36Q351.66 412 351.22 411.7Q350.78 411.41 350.58 410.88Q350.38 410.35 350.38 409.67V409.51L351.06 410.15H350.29Q349.94 411.19 349.07 411.73Q348.2 412.26 347.02 412.26Q345.21 412.26 344.21 411.34Q343.21 410.42 343.21 408.83Q343.21 407.75 343.74 407.02Q344.27 406.28 345.33 405.89Q346.4 405.51 348.05 405.51H350.29V404.39Q350.29 403.18 349.63 402.54Q348.97 401.9 347.61 401.9Q346.6 401.9 345.89 402.36Q345.19 402.83 344.73 403.6L343.67 402.61Q344.13 401.7 345.15 401.04Q346.16 400.38 347.7 400.38Q349.74 400.38 350.9 401.4Q352.05 402.41 352.05 404.21V410.46H353.35ZM350.29 406.83H347.96Q346.47 406.83 345.76 407.27Q345.06 407.71 345.06 408.55V409.01Q345.06 409.84 345.67 410.31Q346.29 410.77 347.3 410.77Q348.18 410.77 348.85 410.49Q349.52 410.22 349.91 409.75Q350.29 409.27 350.29 408.7ZM356.74 397.99Q356.19 397.99 355.93 397.71Q355.66 397.44 355.66 397V396.71Q355.66 396.27 355.93 396Q356.19 395.72 356.74 395.72Q357.31 395.72 357.56 396Q357.82 396.27 357.82 396.71V397Q357.82 397.44 357.56 397.71Q357.31 397.99 356.74 397.99ZM355.86 412V400.65H357.62V412ZM363.12 412H361.36V400.65H363.12V402.5H363.21Q363.63 401.53 364.38 400.96Q365.14 400.38 366.42 400.38Q368.18 400.38 369.2 401.52Q370.23 402.65 370.23 404.72V412H368.47V405.03Q368.47 403.51 367.82 402.74Q367.17 401.97 365.89 401.97Q365.19 401.97 364.55 402.2Q363.91 402.43 363.52 402.91Q363.12 403.4 363.12 404.12ZM386.31 412V410.15H386.22Q385.71 411.21 384.89 411.74Q384.06 412.26 382.9 412.26Q381.49 412.26 380.44 411.54Q379.4 410.81 378.84 409.47Q378.28 408.13 378.28 406.32Q378.28 404.5 378.84 403.17Q379.4 401.84 380.44 401.11Q381.49 400.38 382.9 400.38Q384.06 400.38 384.92 400.9Q385.78 401.42 386.22 402.5H386.31V395.72H388.07V412ZM383.38 410.68Q384.2 410.68 384.86 410.4Q385.52 410.13 385.91 409.61Q386.31 409.1 386.31 408.37V404.15Q386.31 403.51 385.91 403.02Q385.52 402.54 384.86 402.25Q384.2 401.97 383.38 401.97Q381.91 401.97 381.04 402.9Q380.17 403.84 380.17 405.36V407.29Q380.17 408.81 381.04 409.75Q381.91 410.68 383.38 410.68ZM396.08 412.26Q394.54 412.26 393.39 411.53Q392.25 410.79 391.61 409.46Q390.97 408.13 390.97 406.32Q390.97 404.52 391.61 403.19Q392.25 401.86 393.39 401.12Q394.54 400.38 396.08 400.38Q397.59 400.38 398.69 401.1Q399.79 401.81 400.39 403.07Q400.98 404.32 400.98 405.93V406.76H392.82V407.29Q392.82 408.77 393.71 409.75Q394.6 410.72 396.19 410.72Q397.26 410.72 398.07 410.22Q398.87 409.71 399.31 408.77L400.56 409.67Q400.01 410.81 398.85 411.54Q397.68 412.26 396.08 412.26ZM396.08 401.86Q395.13 401.86 394.39 402.3Q393.66 402.74 393.24 403.52Q392.82 404.3 392.82 405.29V405.44H399.09V405.2Q399.09 404.19 398.72 403.44Q398.34 402.69 397.66 402.28Q396.98 401.86 396.08 401.86ZM403.89 416.4V400.65H405.65V402.5H405.73Q406.17 401.42 407.03 400.9Q407.89 400.38 409.06 400.38Q410.49 400.38 411.52 401.11Q412.55 401.84 413.11 403.17Q413.68 404.5 413.68 406.32Q413.68 408.13 413.11 409.47Q412.55 410.81 411.52 411.54Q410.49 412.26 409.06 412.26Q407.89 412.26 407.06 411.74Q406.24 411.21 405.73 410.15H405.65V416.4ZM408.57 410.68Q410.07 410.68 410.93 409.75Q411.78 408.81 411.78 407.29V405.36Q411.78 403.84 410.93 402.9Q410.07 401.97 408.57 401.97Q407.78 401.97 407.11 402.25Q406.44 402.54 406.04 403.02Q405.65 403.51 405.65 404.15V408.37Q405.65 409.1 406.04 409.61Q406.44 410.13 407.11 410.4Q407.78 410.68 408.57 410.68ZM420.94 412.26Q419.42 412.26 418.26 411.53Q417.11 410.79 416.46 409.46Q415.81 408.13 415.81 406.32Q415.81 404.52 416.46 403.19Q417.11 401.86 418.26 401.12Q419.42 400.38 420.94 400.38Q422.45 400.38 423.61 401.12Q424.76 401.86 425.41 403.19Q426.06 404.52 426.06 406.32Q426.06 408.13 425.41 409.46Q424.76 410.79 423.61 411.53Q422.45 412.26 420.94 412.26ZM420.94 410.7Q422.37 410.7 423.27 409.82Q424.17 408.94 424.17 407.14V405.51Q424.17 403.71 423.27 402.83Q422.37 401.95 420.94 401.95Q419.53 401.95 418.61 402.83Q417.7 403.71 417.7 405.51V407.14Q417.7 408.94 418.61 409.82Q419.53 410.7 420.94 410.7ZM432.38 412.26Q430.81 412.26 429.74 411.66Q428.66 411.05 427.89 410.04L429.14 409.03Q429.8 409.84 430.62 410.31Q431.43 410.77 432.51 410.77Q433.63 410.77 434.26 410.28Q434.88 409.8 434.88 408.92Q434.88 408.26 434.45 407.78Q434.03 407.29 432.9 407.14L432 407.01Q430.97 406.85 430.13 406.49Q429.3 406.13 428.82 405.45Q428.35 404.78 428.35 403.73Q428.35 402.03 429.5 401.21Q430.66 400.38 432.4 400.38Q433.32 400.38 434.04 400.6Q434.75 400.82 435.32 401.23Q435.9 401.64 436.36 402.21L435.19 403.27Q434.82 402.74 434.09 402.31Q433.37 401.88 432.27 401.88Q431.19 401.88 430.62 402.35Q430.04 402.83 430.04 403.64Q430.04 404.45 430.6 404.84Q431.17 405.22 432.22 405.4L433.1 405.53Q434.99 405.82 435.79 406.62Q436.58 407.42 436.58 408.72Q436.58 409.82 436.07 410.61Q435.57 411.41 434.62 411.84Q433.67 412.26 432.38 412.26ZM440.56 397.99Q440.01 397.99 439.75 397.71Q439.48 397.44 439.48 397V396.71Q439.48 396.27 439.75 396Q440.01 395.72 440.56 395.72Q441.13 395.72 441.38 396Q441.64 396.27 441.64 396.71V397Q441.64 397.44 441.38 397.71Q441.13 397.99 440.56 397.99ZM439.68 412V400.65H441.44V412ZM449.89 412H447.69Q446.79 412 446.3 411.47Q445.82 410.94 445.82 410.13V402.19H443.95V400.65H445Q445.58 400.65 445.78 400.42Q445.99 400.19 445.99 399.61V397.5H447.58V400.65H450.06V402.19H447.58V410.46H449.89ZM456.31 412.26Q454.75 412.26 453.67 411.66Q452.59 411.05 451.82 410.04L453.08 409.03Q453.74 409.84 454.55 410.31Q455.37 410.77 456.44 410.77Q457.57 410.77 458.19 410.28Q458.82 409.8 458.82 408.92Q458.82 408.26 458.39 407.78Q457.96 407.29 456.84 407.14L455.94 407.01Q454.9 406.85 454.07 406.49Q453.23 406.13 452.76 405.45Q452.29 404.78 452.29 403.73Q452.29 402.03 453.44 401.21Q454.6 400.38 456.33 400.38Q457.26 400.38 457.97 400.6Q458.69 400.82 459.26 401.23Q459.83 401.64 460.29 402.21L459.13 403.27Q458.75 402.74 458.03 402.31Q457.3 401.88 456.2 401.88Q455.12 401.88 454.55 402.35Q453.98 402.83 453.98 403.64Q453.98 404.45 454.54 404.84Q455.1 405.22 456.16 405.4L457.04 405.53Q458.93 405.82 459.72 406.62Q460.51 407.42 460.51 408.72Q460.51 409.82 460.01 410.61Q459.5 411.41 458.56 411.84Q457.61 412.26 456.31 412.26ZM478.05 412H477.06Q476.35 412 475.91 411.7Q475.47 411.41 475.28 410.88Q475.08 410.35 475.08 409.67V409.51L475.76 410.15H474.99Q474.64 411.19 473.77 411.73Q472.9 412.26 471.71 412.26Q469.91 412.26 468.91 411.34Q467.91 410.42 467.91 408.83Q467.91 407.75 468.43 407.02Q468.96 406.28 470.03 405.89Q471.1 405.51 472.75 405.51H474.99V404.39Q474.99 403.18 474.33 402.54Q473.67 401.9 472.31 401.9Q471.29 401.9 470.59 402.36Q469.89 402.83 469.42 403.6L468.37 402.61Q468.83 401.7 469.84 401.04Q470.85 400.38 472.39 400.38Q474.44 400.38 475.59 401.4Q476.75 402.41 476.75 404.21V410.46H478.05ZM474.99 406.83H472.66Q471.16 406.83 470.46 407.27Q469.75 407.71 469.75 408.55V409.01Q469.75 409.84 470.37 410.31Q470.99 410.77 472 410.77Q472.88 410.77 473.55 410.49Q474.22 410.22 474.6 409.75Q474.99 409.27 474.99 408.7ZM482.32 412H480.56V400.65H482.32V402.5H482.4Q482.82 401.53 483.58 400.96Q484.34 400.38 485.62 400.38Q487.38 400.38 488.4 401.52Q489.42 402.65 489.42 404.72V412H487.66V405.03Q487.66 403.51 487.01 402.74Q486.36 401.97 485.09 401.97Q484.38 401.97 483.75 402.2Q483.11 402.43 482.71 402.91Q482.32 403.4 482.32 404.12ZM500.31 412V410.15H500.22Q499.72 411.21 498.89 411.74Q498.07 412.26 496.9 412.26Q495.49 412.26 494.45 411.54Q493.4 410.81 492.84 409.47Q492.28 408.13 492.28 406.32Q492.28 404.5 492.84 403.17Q493.4 401.84 494.45 401.11Q495.49 400.38 496.9 400.38Q498.07 400.38 498.93 400.9Q499.78 401.42 500.22 402.5H500.31V395.72H502.07V412ZM497.39 410.68Q498.2 410.68 498.86 410.4Q499.52 410.13 499.92 409.61Q500.31 409.1 500.31 408.37V404.15Q500.31 403.51 499.92 403.02Q499.52 402.54 498.86 402.25Q498.2 401.97 497.39 401.97Q495.91 401.97 495.04 402.9Q494.17 403.84 494.17 405.36V407.29Q494.17 408.81 495.04 409.75Q495.91 410.68 497.39 410.68ZM515.29 412.26Q513.78 412.26 512.62 411.53Q511.47 410.79 510.82 409.46Q510.17 408.13 510.17 406.32Q510.17 404.52 510.82 403.19Q511.47 401.86 512.62 401.12Q513.78 400.38 515.29 400.38Q516.81 400.38 517.97 401.12Q519.12 401.86 519.77 403.19Q520.42 404.52 520.42 406.32Q520.42 408.13 519.77 409.46Q519.12 410.79 517.97 411.53Q516.81 412.26 515.29 412.26ZM515.29 410.7Q516.72 410.7 517.63 409.82Q518.53 408.94 518.53 407.14V405.51Q518.53 403.71 517.63 402.83Q516.72 401.95 515.29 401.95Q513.89 401.95 512.97 402.83Q512.06 403.71 512.06 405.51V407.14Q512.06 408.94 512.97 409.82Q513.89 410.7 515.29 410.7ZM525.08 412H523.32V400.65H525.08V402.5H525.17Q525.59 401.53 526.35 400.96Q527.11 400.38 528.38 400.38Q530.14 400.38 531.17 401.52Q532.19 402.65 532.19 404.72V412H530.43V405.03Q530.43 403.51 529.78 402.74Q529.13 401.97 527.86 401.97Q527.15 401.97 526.51 402.2Q525.88 402.43 525.48 402.91Q525.08 403.4 525.08 404.12ZM540.09 412.26Q538.55 412.26 537.4 411.53Q536.26 410.79 535.62 409.46Q534.98 408.13 534.98 406.32Q534.98 404.52 535.62 403.19Q536.26 401.86 537.4 401.12Q538.55 400.38 540.09 400.38Q541.61 400.38 542.71 401.1Q543.81 401.81 544.4 403.07Q544.99 404.32 544.99 405.93V406.76H536.83V407.29Q536.83 408.77 537.72 409.75Q538.61 410.72 540.2 410.72Q541.28 410.72 542.08 410.22Q542.88 409.71 543.32 408.77L544.58 409.67Q544.03 410.81 542.86 411.54Q541.69 412.26 540.09 412.26ZM540.09 401.86Q539.14 401.86 538.4 402.3Q537.67 402.74 537.25 403.52Q536.83 404.3 536.83 405.29V405.44H543.1V405.2Q543.1 404.19 542.73 403.44Q542.35 402.69 541.67 402.28Q540.99 401.86 540.09 401.86ZM553.29 406.26H547.55V404.37H553.29ZM561.38 412H559.18Q558.28 412 557.8 411.47Q557.31 410.94 557.31 410.13V402.19H555.44V400.65H556.5Q557.07 400.65 557.28 400.42Q557.49 400.19 557.49 399.61V397.5H559.07V400.65H561.56V402.19H559.07V410.46H561.38ZM566.16 412H564.4V400.65H566.16V402.74H566.27Q566.47 402.19 566.88 401.72Q567.3 401.24 567.96 400.95Q568.62 400.65 569.55 400.65H570.23V402.41H569.19Q568.25 402.41 567.57 402.66Q566.88 402.91 566.52 403.33Q566.16 403.75 566.16 404.3ZM581.71 412H580.72Q580.02 412 579.58 411.7Q579.14 411.41 578.94 410.88Q578.74 410.35 578.74 409.67V409.51L579.42 410.15H578.65Q578.3 411.19 577.43 411.73Q576.56 412.26 575.38 412.26Q573.57 412.26 572.57 411.34Q571.57 410.42 571.57 408.83Q571.57 407.75 572.1 407.02Q572.63 406.28 573.69 405.89Q574.76 405.51 576.41 405.51H578.65V404.39Q578.65 403.18 577.99 402.54Q577.33 401.9 575.97 401.9Q574.96 401.9 574.25 402.36Q573.55 402.83 573.09 403.6L572.03 402.61Q572.49 401.7 573.51 401.04Q574.52 400.38 576.06 400.38Q578.1 400.38 579.26 401.4Q580.41 402.41 580.41 404.21V410.46H581.71ZM578.65 406.83H576.32Q574.83 406.83 574.12 407.27Q573.42 407.71 573.42 408.55V409.01Q573.42 409.84 574.03 410.31Q574.65 410.77 575.66 410.77Q576.54 410.77 577.21 410.49Q577.88 410.22 578.27 409.75Q578.65 409.27 578.65 408.7ZM585.98 412H584.22V400.65H585.98V402.5H586.07Q586.49 401.53 587.24 400.96Q588 400.38 589.28 400.38Q591.04 400.38 592.06 401.52Q593.09 402.65 593.09 404.72V412H591.33V405.03Q591.33 403.51 590.68 402.74Q590.03 401.97 588.75 401.97Q588.05 401.97 587.41 402.2Q586.77 402.43 586.38 402.91Q585.98 403.4 585.98 404.12ZM600.13 412.26Q598.56 412.26 597.49 411.66Q596.41 411.05 595.64 410.04L596.89 409.03Q597.55 409.84 598.37 410.31Q599.18 410.77 600.26 410.77Q601.38 410.77 602.01 410.28Q602.63 409.8 602.63 408.92Q602.63 408.26 602.2 407.78Q601.78 407.29 600.65 407.14L599.75 407.01Q598.72 406.85 597.88 406.49Q597.05 406.13 596.57 405.45Q596.1 404.78 596.1 403.73Q596.1 402.03 597.25 401.21Q598.41 400.38 600.15 400.38Q601.07 400.38 601.79 400.6Q602.5 400.82 603.07 401.23Q603.65 401.64 604.11 402.21L602.94 403.27Q602.57 402.74 601.84 402.31Q601.12 401.88 600.02 401.88Q598.94 401.88 598.37 402.35Q597.79 402.83 597.79 403.64Q597.79 404.45 598.35 404.84Q598.92 405.22 599.97 405.4L600.85 405.53Q602.74 405.82 603.54 406.62Q604.33 407.42 604.33 408.72Q604.33 409.82 603.82 410.61Q603.32 411.41 602.37 411.84Q601.42 412.26 600.13 412.26ZM616.67 412H615.68Q614.98 412 614.54 411.7Q614.1 411.41 613.9 410.88Q613.7 410.35 613.7 409.67V409.51L614.38 410.15H613.61Q613.26 411.19 612.39 411.73Q611.52 412.26 610.33 412.26Q608.53 412.26 607.53 411.34Q606.53 410.42 606.53 408.83Q606.53 407.75 607.06 407.02Q607.58 406.28 608.65 405.89Q609.72 405.51 611.37 405.51H613.61V404.39Q613.61 403.18 612.95 402.54Q612.29 401.9 610.93 401.9Q609.92 401.9 609.21 402.36Q608.51 402.83 608.05 403.6L606.99 402.61Q607.45 401.7 608.46 401.04Q609.48 400.38 611.02 400.38Q613.06 400.38 614.22 401.4Q615.37 402.41 615.37 404.21V410.46H616.67ZM613.61 406.83H611.28Q609.78 406.83 609.08 407.27Q608.38 407.71 608.38 408.55V409.01Q608.38 409.84 608.99 410.31Q609.61 410.77 610.62 410.77Q611.5 410.77 612.17 410.49Q612.84 410.22 613.23 409.75Q613.61 409.27 613.61 408.7ZM623.4 412.26Q621 412.26 619.67 410.66Q618.34 409.05 618.34 406.32Q618.34 403.6 619.67 401.99Q621 400.38 623.4 400.38Q625.1 400.38 626.13 401.13Q627.16 401.88 627.65 403.05L626.17 403.79Q625.87 402.91 625.15 402.43Q624.44 401.95 623.4 401.95Q621.84 401.95 621.04 402.9Q620.23 403.86 620.23 405.36V407.29Q620.23 408.77 621.04 409.73Q621.84 410.7 623.4 410.7Q624.48 410.7 625.25 410.2Q626.02 409.69 626.48 408.72L627.76 409.58Q627.21 410.79 626.12 411.53Q625.03 412.26 623.4 412.26ZM634.95 412H632.75Q631.85 412 631.37 411.47Q630.88 410.94 630.88 410.13V402.19H629.01V400.65H630.07Q630.64 400.65 630.85 400.42Q631.06 400.19 631.06 399.61V397.5H632.64V400.65H635.13V402.19H632.64V410.46H634.95ZM638.85 397.99Q638.3 397.99 638.03 397.71Q637.77 397.44 637.77 397V396.71Q637.77 396.27 638.03 396Q638.3 395.72 638.85 395.72Q639.42 395.72 639.67 396Q639.92 396.27 639.92 396.71V397Q639.92 397.44 639.67 397.71Q639.42 397.99 638.85 397.99ZM637.97 412V400.65H639.73V412ZM647.76 412.26Q646.24 412.26 645.08 411.53Q643.93 410.79 643.28 409.46Q642.63 408.13 642.63 406.32Q642.63 404.52 643.28 403.19Q643.93 401.86 645.08 401.12Q646.24 400.38 647.76 400.38Q649.27 400.38 650.43 401.12Q651.58 401.86 652.23 403.19Q652.88 404.52 652.88 406.32Q652.88 408.13 652.23 409.46Q651.58 410.79 650.43 411.53Q649.27 412.26 647.76 412.26ZM647.76 410.7Q649.19 410.7 650.09 409.82Q650.99 408.94 650.99 407.14V405.51Q650.99 403.71 650.09 402.83Q649.19 401.95 647.76 401.95Q646.35 401.95 645.43 402.83Q644.52 403.71 644.52 405.51V407.14Q644.52 408.94 645.43 409.82Q646.35 410.7 647.76 410.7ZM657.55 412H655.79V400.65H657.55V402.5H657.63Q658.05 401.53 658.81 400.96Q659.57 400.38 660.85 400.38Q662.61 400.38 663.63 401.52Q664.65 402.65 664.65 404.72V412H662.89V405.03Q662.89 403.51 662.24 402.74Q661.59 401.97 660.32 401.97Q659.61 401.97 658.98 402.2Q658.34 402.43 657.94 402.91Q657.55 403.4 657.55 404.12ZM676.91 412H675.34Q674.44 412 673.96 411.48Q673.47 410.97 673.47 410.17V395.72H675.23V410.46H676.91ZM683.75 412.26Q682.23 412.26 681.07 411.53Q679.92 410.79 679.27 409.46Q678.62 408.13 678.62 406.32Q678.62 404.52 679.27 403.19Q679.92 401.86 681.07 401.12Q682.23 400.38 683.75 400.38Q685.27 400.38 686.42 401.12Q687.58 401.86 688.22 403.19Q688.87 404.52 688.87 406.32Q688.87 408.13 688.22 409.46Q687.58 410.79 686.42 411.53Q685.27 412.26 683.75 412.26ZM683.75 410.7Q685.18 410.7 686.08 409.82Q686.98 408.94 686.98 407.14V405.51Q686.98 403.71 686.08 402.83Q685.18 401.95 683.75 401.95Q682.34 401.95 681.43 402.83Q680.51 403.71 680.51 405.51V407.14Q680.51 408.94 681.43 409.82Q682.34 410.7 683.75 410.7ZM696.07 412.26Q694.55 412.26 693.39 411.53Q692.24 410.79 691.59 409.46Q690.94 408.13 690.94 406.32Q690.94 404.52 691.59 403.19Q692.24 401.86 693.39 401.12Q694.55 400.38 696.07 400.38Q697.59 400.38 698.74 401.12Q699.9 401.86 700.54 403.19Q701.19 404.52 701.19 406.32Q701.19 408.13 700.54 409.46Q699.9 410.79 698.74 411.53Q697.59 412.26 696.07 412.26ZM696.07 410.7Q697.5 410.7 698.4 409.82Q699.3 408.94 699.3 407.14V405.51Q699.3 403.71 698.4 402.83Q697.5 401.95 696.07 401.95Q694.66 401.95 693.75 402.83Q692.83 403.71 692.83 405.51V407.14Q692.83 408.94 693.75 409.82Q694.66 410.7 696.07 410.7ZM704.1 416.4V400.65H705.86V402.5H705.95Q706.39 401.42 707.24 400.9Q708.1 400.38 709.27 400.38Q710.7 400.38 711.73 401.11Q712.77 401.84 713.33 403.17Q713.89 404.5 713.89 406.32Q713.89 408.13 713.33 409.47Q712.77 410.81 711.73 411.54Q710.7 412.26 709.27 412.26Q708.1 412.26 707.28 411.74Q706.45 411.21 705.95 410.15H705.86V416.4ZM708.78 410.68Q710.28 410.68 711.14 409.75Q712 408.81 712 407.29V405.36Q712 403.84 711.14 402.9Q710.28 401.97 708.78 401.97Q707.99 401.97 707.32 402.25Q706.65 402.54 706.25 403.02Q705.86 403.51 705.86 404.15V408.37Q705.86 409.1 706.25 409.61Q706.65 410.13 707.32 410.4Q707.99 410.68 708.78 410.68ZM720.27 412.26Q718.71 412.26 717.63 411.66Q716.55 411.05 715.78 410.04L717.03 409.03Q717.69 409.84 718.51 410.31Q719.32 410.77 720.4 410.77Q721.52 410.77 722.15 410.28Q722.78 409.8 722.78 408.92Q722.78 408.26 722.35 407.78Q721.92 407.29 720.8 407.14L719.89 407.01Q718.86 406.85 718.02 406.49Q717.19 406.13 716.71 405.45Q716.24 404.78 716.24 403.73Q716.24 402.03 717.4 401.21Q718.55 400.38 720.29 400.38Q721.21 400.38 721.93 400.6Q722.64 400.82 723.22 401.23Q723.79 401.64 724.25 402.21L723.08 403.27Q722.71 402.74 721.98 402.31Q721.26 401.88 720.16 401.88Q719.08 401.88 718.51 402.35Q717.94 402.83 717.94 403.64Q717.94 404.45 718.5 404.84Q719.06 405.22 720.11 405.4L720.99 405.53Q722.89 405.82 723.68 406.62Q724.47 407.42 724.47 408.72Q724.47 409.82 723.96 410.61Q723.46 411.41 722.51 411.84Q721.57 412.26 720.27 412.26ZM728.69 409.43Q729.4 409.43 729.72 409.79Q730.04 410.15 730.04 410.72V411.03Q730.04 411.91 729.51 413.01Q728.98 414.11 728.03 414.93H726.56Q727.22 414.22 727.63 413.6Q728.03 412.97 728.21 412.2Q727.77 412.09 727.56 411.78Q727.35 411.47 727.35 411.03V410.72Q727.35 410.15 727.68 409.79Q728.01 409.43 728.69 409.43ZM743.04 412.26Q741.52 412.26 740.37 411.53Q739.21 410.79 738.56 409.46Q737.91 408.13 737.91 406.32Q737.91 404.52 738.56 403.19Q739.21 401.86 740.37 401.12Q741.52 400.38 743.04 400.38Q744.56 400.38 745.71 401.12Q746.87 401.86 747.51 403.19Q748.16 404.52 748.16 406.32Q748.16 408.13 747.51 409.46Q746.87 410.79 745.71 411.53Q744.56 412.26 743.04 412.26ZM743.04 410.7Q744.47 410.7 745.37 409.82Q746.27 408.94 746.27 407.14V405.51Q746.27 403.71 745.37 402.83Q744.47 401.95 743.04 401.95Q741.63 401.95 740.72 402.83Q739.8 403.71 739.8 405.51V407.14Q739.8 408.94 740.72 409.82Q741.63 410.7 743.04 410.7ZM752.83 412H751.07V400.65H752.83V402.5H752.92Q753.33 401.53 754.09 400.96Q754.85 400.38 756.13 400.38Q757.89 400.38 758.91 401.52Q759.93 402.65 759.93 404.72V412H758.17V405.03Q758.17 403.51 757.53 402.74Q756.88 401.97 755.6 401.97Q754.9 401.97 754.26 402.2Q753.62 402.43 753.22 402.91Q752.83 403.4 752.83 404.12ZM773.46 412H771.26Q770.36 412 769.88 411.47Q769.39 410.94 769.39 410.13V402.19H767.52V400.65H768.58Q769.15 400.65 769.36 400.42Q769.57 400.19 769.57 399.61V397.5H771.15V400.65H773.64V402.19H771.15V410.46H773.46ZM776.48 412V395.72H778.24V402.5H778.33Q778.74 401.53 779.5 400.96Q780.26 400.38 781.54 400.38Q783.3 400.38 784.32 401.52Q785.34 402.65 785.34 404.72V412H783.58V405.03Q783.58 403.51 782.94 402.74Q782.29 401.97 781.01 401.97Q780.31 401.97 779.67 402.2Q779.03 402.43 778.63 402.91Q778.24 403.4 778.24 404.12V412ZM793.24 412.26Q791.7 412.26 790.56 411.53Q789.41 410.79 788.78 409.46Q788.14 408.13 788.14 406.32Q788.14 404.52 788.78 403.19Q789.41 401.86 790.56 401.12Q791.7 400.38 793.24 400.38Q794.76 400.38 795.86 401.1Q796.96 401.81 797.55 403.07Q798.15 404.32 798.15 405.93V406.76H789.99V407.29Q789.99 408.77 790.88 409.75Q791.77 410.72 793.35 410.72Q794.43 410.72 795.23 410.22Q796.04 409.71 796.48 408.77L797.73 409.67Q797.18 410.81 796.01 411.54Q794.85 412.26 793.24 412.26ZM793.24 401.86Q792.3 401.86 791.56 402.3Q790.82 402.74 790.4 403.52Q789.99 404.3 789.99 405.29V405.44H796.26V405.2Q796.26 404.19 795.88 403.44Q795.51 402.69 794.83 402.28Q794.14 401.86 793.24 401.86ZM816.41 412H806.31V410.37H810.6V398.01H810.45L806.57 401.62L805.5 400.45L809.57 396.64H812.45V410.37H816.41ZM826.7 412V410.15H826.62Q826.11 411.21 825.29 411.74Q824.46 412.26 823.29 412.26Q821.89 412.26 820.84 411.54Q819.8 410.81 819.24 409.47Q818.67 408.13 818.67 406.32Q818.67 404.5 819.24 403.17Q819.8 401.84 820.84 401.11Q821.89 400.38 823.29 400.38Q824.46 400.38 825.32 400.9Q826.18 401.42 826.62 402.5H826.7V395.72H828.46V412ZM823.78 410.68Q824.59 410.68 825.25 410.4Q825.91 410.13 826.31 409.61Q826.7 409.1 826.7 408.37V404.15Q826.7 403.51 826.31 403.02Q825.91 402.54 825.25 402.25Q824.59 401.97 823.78 401.97Q822.3 401.97 821.44 402.9Q820.57 403.84 820.57 405.36V407.29Q820.57 408.81 821.44 409.75Q822.3 410.68 823.78 410.68ZM836.47 412.26Q834.93 412.26 833.79 411.53Q832.64 410.79 832.01 409.46Q831.37 408.13 831.37 406.32Q831.37 404.52 832.01 403.19Q832.64 401.86 833.79 401.12Q834.93 400.38 836.47 400.38Q837.99 400.38 839.09 401.1Q840.19 401.81 840.78 403.07Q841.38 404.32 841.38 405.93V406.76H833.22V407.29Q833.22 408.77 834.11 409.75Q835 410.72 836.58 410.72Q837.66 410.72 838.46 410.22Q839.27 409.71 839.71 408.77L840.96 409.67Q840.41 410.81 839.24 411.54Q838.08 412.26 836.47 412.26ZM836.47 401.86Q835.53 401.86 834.79 402.3Q834.05 402.74 833.63 403.52Q833.22 404.3 833.22 405.29V405.44H839.49V405.2Q839.49 404.19 839.11 403.44Q838.74 402.69 838.06 402.28Q837.37 401.86 836.47 401.86ZM847.71 412H846.15Q845.25 412 844.77 411.48Q844.28 410.97 844.28 410.17V395.72H846.04V410.46H847.71ZM854.97 412H852.77Q851.87 412 851.39 411.47Q850.9 410.94 850.9 410.13V402.19H849.03V400.65H850.09Q850.66 400.65 850.87 400.42Q851.08 400.19 851.08 399.61V397.5H852.66V400.65H855.15V402.19H852.66V410.46H854.97ZM867.23 412H866.24Q865.53 412 865.09 411.7Q864.65 411.41 864.46 410.88Q864.26 410.35 864.26 409.67V409.51L864.94 410.15H864.17Q863.82 411.19 862.95 411.73Q862.08 412.26 860.89 412.26Q859.09 412.26 858.09 411.34Q857.09 410.42 857.09 408.83Q857.09 407.75 857.61 407.02Q858.14 406.28 859.21 405.89Q860.28 405.51 861.93 405.51H864.17V404.39Q864.17 403.18 863.51 402.54Q862.85 401.9 861.49 401.9Q860.47 401.9 859.77 402.36Q859.07 402.83 858.6 403.6L857.55 402.61Q858.01 401.7 859.02 401.04Q860.03 400.38 861.57 400.38Q863.62 400.38 864.78 401.4Q865.93 402.41 865.93 404.21V410.46H867.23ZM864.17 406.83H861.84Q860.34 406.83 859.64 407.27Q858.93 407.71 858.93 408.55V409.01Q858.93 409.84 859.55 410.31Q860.17 410.77 861.18 410.77Q862.06 410.77 862.73 410.49Q863.4 410.22 863.79 409.75Q864.17 409.27 864.17 408.7ZM886.65 412H884.72L883.18 407.47H876.97L875.43 412H873.56L878.93 396.64H881.29ZM882.72 405.84 880.78 400.27 880.12 398.36H880.01L879.35 400.27L877.41 405.84ZM891.05 412H889.21V396.64H895.32Q896.71 396.64 897.67 397.18Q898.62 397.72 899.12 398.7Q899.61 399.68 899.61 401.04Q899.61 402.39 899.12 403.38Q898.62 404.37 897.67 404.9Q896.71 405.44 895.32 405.44H891.05ZM891.05 398.27V403.82H895.32Q896.05 403.82 896.57 403.56Q897.08 403.31 897.36 402.81Q897.63 402.32 897.63 401.62V400.47Q897.63 399.77 897.36 399.27Q897.08 398.78 896.57 398.52Q896.05 398.27 895.32 398.27ZM907.97 412H901.81V410.46H903.97V398.18H901.81V396.64H907.97V398.18H905.82V410.46H907.97ZM912.28 412.26Q911.6 412.26 911.27 411.9Q910.94 411.54 910.94 410.99V410.7Q910.94 410.13 911.27 409.78Q911.6 409.43 912.28 409.43Q912.99 409.43 913.31 409.78Q913.63 410.13 913.63 410.7V410.99Q913.63 411.54 913.31 411.9Q912.99 412.26 912.28 412.26Z" fill="#8a8a8a"/><rect x="100" y="452" width="120" height="3" fill="url(#hair)"/><path d="M101.7 484V469.2H103.3V475.36H103.38Q103.78 474.38 104.56 473.91Q105.34 473.44 106.4 473.44Q107.7 473.44 108.64 474.1Q109.58 474.76 110.09 475.97Q110.6 477.18 110.6 478.84Q110.6 480.48 110.09 481.7Q109.58 482.92 108.64 483.58Q107.7 484.24 106.4 484.24Q105.34 484.24 104.59 483.76Q103.84 483.28 103.38 482.32H103.3V484ZM105.96 482.8Q107.32 482.8 108.1 481.95Q108.88 481.1 108.88 479.72V477.96Q108.88 476.58 108.1 475.73Q107.32 474.88 105.96 474.88Q105.24 474.88 104.63 475.14Q104.02 475.4 103.66 475.84Q103.3 476.28 103.3 476.86V480.7Q103.3 481.36 103.66 481.83Q104.02 482.3 104.63 482.55Q105.24 482.8 105.96 482.8ZM117.96 480.7 120.46 473.68H122.04L117.42 486.4Q117.2 487.02 116.93 487.37Q116.66 487.72 116.22 487.86Q115.78 488 115.02 488H114.2V486.6H115.82L116.6 484.4L112.74 473.68H114.34L116.82 480.7L117.3 482.38H117.4ZM139.64 484H130.46V482.52H134.36V471.28H134.22L130.7 474.56L129.72 473.5L133.42 470.04H136.04V482.52H139.64ZM149.8 484V482.32H149.72Q149.26 483.28 148.51 483.76Q147.76 484.24 146.7 484.24Q145.42 484.24 144.47 483.58Q143.52 482.92 143.01 481.7Q142.5 480.48 142.5 478.84Q142.5 477.18 143.01 475.97Q143.52 474.76 144.47 474.1Q145.42 473.44 146.7 473.44Q147.76 473.44 148.54 473.91Q149.32 474.38 149.72 475.36H149.8V469.2H151.4V484ZM147.14 482.8Q147.88 482.8 148.48 482.55Q149.08 482.3 149.44 481.83Q149.8 481.36 149.8 480.7V476.86Q149.8 476.28 149.44 475.84Q149.08 475.4 148.48 475.14Q147.88 474.88 147.14 474.88Q145.8 474.88 145.01 475.73Q144.22 476.58 144.22 477.96V479.72Q144.22 481.1 145.01 481.95Q145.8 482.8 147.14 482.8ZM159.48 484.24Q158.08 484.24 157.04 483.57Q156 482.9 155.42 481.69Q154.84 480.48 154.84 478.84Q154.84 477.2 155.42 475.99Q156 474.78 157.04 474.11Q158.08 473.44 159.48 473.44Q160.86 473.44 161.86 474.09Q162.86 474.74 163.4 475.88Q163.94 477.02 163.94 478.48V479.24H156.52V479.72Q156.52 481.06 157.33 481.95Q158.14 482.84 159.58 482.84Q160.56 482.84 161.29 482.38Q162.02 481.92 162.42 481.06L163.56 481.88Q163.06 482.92 162 483.58Q160.94 484.24 159.48 484.24ZM159.48 474.78Q158.62 474.78 157.95 475.18Q157.28 475.58 156.9 476.29Q156.52 477 156.52 477.9V478.04H162.22V477.82Q162.22 476.9 161.88 476.22Q161.54 475.54 160.92 475.16Q160.3 474.78 159.48 474.78ZM170.5 484H169.08Q168.26 484 167.82 483.53Q167.38 483.06 167.38 482.34V469.2H168.98V482.6H170.5ZM177.9 484H175.9Q175.08 484 174.64 483.52Q174.2 483.04 174.2 482.3V475.08H172.5V473.68H173.46Q173.98 473.68 174.17 473.47Q174.36 473.26 174.36 472.74V470.82H175.8V473.68H178.06V475.08H175.8V482.6H177.9ZM189.84 484H188.94Q188.3 484 187.9 483.73Q187.5 483.46 187.32 482.98Q187.14 482.5 187.14 481.88V481.74L187.76 482.32H187.06Q186.74 483.26 185.95 483.75Q185.16 484.24 184.08 484.24Q182.44 484.24 181.53 483.4Q180.62 482.56 180.62 481.12Q180.62 480.14 181.1 479.47Q181.58 478.8 182.55 478.45Q183.52 478.1 185.02 478.1H187.06V477.08Q187.06 475.98 186.46 475.4Q185.86 474.82 184.62 474.82Q183.7 474.82 183.06 475.24Q182.42 475.66 182 476.36L181.04 475.46Q181.46 474.64 182.38 474.04Q183.3 473.44 184.7 473.44Q186.56 473.44 187.61 474.36Q188.66 475.28 188.66 476.92V482.6H189.84ZM187.06 479.3H184.94Q183.58 479.3 182.94 479.7Q182.3 480.1 182.3 480.86V481.28Q182.3 482.04 182.86 482.46Q183.42 482.88 184.34 482.88Q185.14 482.88 185.75 482.63Q186.36 482.38 186.71 481.95Q187.06 481.52 187.06 481Z" fill="#8a8a8a"/></svg>