<svg xmlns="http://www.w3.org/2000/svg" viewBox="0 0 1500 500" width="1500" height="500"><rect width="1500" height="500" fill="#000000"/><defs><linearGradient id="g" gradientUnits="userSpaceOnUse" x1="16" y1="88" x2="86" y2="14"><stop offset="0" stop-color="#0b8fb5"/><stop offset="1" stop-color="#7ce9f5"/></linearGradient><linearGradient id="gg" gradientUnits="userSpaceOnUse" x1="257.00" y1="64.00" x2="433.20" y2="36.00"><stop offset="0" stop-color="#0b8fb5"/><stop offset="1" stop-color="#7ce9f5"/></linearGradient><radialGradient id="glow" cx="0.841" cy="0.5" r="0.4"><stop offset="0" stop-color="#0b8fb5" stop-opacity="0.32"/><stop offset="1" stop-color="#0b8fb5" stop-opacity="0"/></radialGradient><radialGradient id="glow2" cx="0.35" cy="0.4" r="0.45"><stop offset="0" stop-color="#0b8fb5" stop-opacity="0.12"/><stop offset="1" stop-color="#0b8fb5" stop-opacity="0"/></radialGradient><linearGradient id="arc" x1="0" y1="1" x2="1" y2="0"><stop offset="0" stop-color="#0b8fb5"/><stop offset="1" stop-color="#7ce9f5"/></linearGradient></defs><rect width="1500" height="500" fill="url(#glow2)"/><rect width="1500" height="500" fill="url(#glow)"/><circle cx="1262.0" cy="250.0" r="220.0" fill="none" stroke="#7ce9f5" stroke-opacity="0.06" stroke-width="1.5"/><circle cx="1262.0" cy="250.0" r="158.0" fill="none" stroke="#7ce9f5" stroke-opacity="0.18" stroke-width="2"/><path d="M1113.5 196.0 A158.0 158.0 0 0 1 1391.4 159.4" fill="none" stroke="url(#arc)" stroke-width="3" stroke-linecap="round"/><path transform="translate(1199.5 187.5) scale(1.25)" fill="url(#g)" fill-rule="evenodd" d="M85.21 42.52A36 36 0 1 1 55.01 14.35L63.62 23.27L53.34 26.23A24 24 0 1 0 73.48 45.01ZM41.5 50a8.5 8.5 0 1 0 17 0a8.5 8.5 0 1 0 -17 0Z"/><circle cx="1322.5" cy="104.0" r="35.0" fill="#000000"/><g transform="translate(1291.5 73.0) scale(0.96875)"><rect width="64" height="64" rx="32" fill="#06282f"></rect><defs><clipPath id="chr0"><rect width="64" height="64" rx="32"></rect></clipPath></defs><g clip-path="url(#chr0)"><circle cx="32" cy="32" r="22" fill="none" stroke="#0a3b45" stroke-width="6"></circle><g fill="#1b9cb0"><path d="M13.5 22.5 l4.5 -9 l4.5 9z"></path><path d="M41.5 22.5 l4.5 -9 l4.5 9z"></path></g><rect x="15" y="16.5" width="34" height="31" rx="13" fill="#2fd3e8"></rect><g fill="#042028"><circle cx="25" cy="31" r="3.4"></circle><circle cx="39" cy="31" r="3.4"></circle></g><path d="M27 39q5 5 10 0" fill="none" stroke="#042028" stroke-width="2.4" stroke-linecap="round"></path></g></g><rect x="1347.5" y="108.0" width="81.2" height="26" rx="13" fill="#0d1a14" stroke="#3fbf7f" stroke-opacity="0.5"/><path transform="translate(1357.5 127.0)" d="M5.75 -1.05H4.45V-4.61H1.14V-5.76H4.45V-9.32H5.75V-5.76H9.06V-4.61H5.75ZM19.5 0H11.7V-1.26H15.01V-10.81H14.89L11.9 -8.02L11.07 -8.93L14.21 -11.87H16.44V-1.26H19.5ZM28.14 0H26.78V-2.33H21.05V-3.59L26.01 -11.87H28.14V-3.52H29.85V-2.33H28.14ZM26.69 -10.76 22.39 -3.52H26.78V-10.76ZM32.91 0.2Q32.39 0.2 32.13 -0.08Q31.88 -0.36 31.88 -0.78V-1Q31.88 -1.45 32.13 -1.72Q32.39 -1.99 32.91 -1.99Q33.46 -1.99 33.7 -1.72Q33.95 -1.45 33.95 -1V-0.78Q33.95 -0.36 33.7 -0.08Q33.46 0.2 32.91 0.2ZM44.29 -1.26V0H36.5V-1.46L40.38 -5.03Q41.21 -5.8 41.77 -6.66Q42.33 -7.53 42.33 -8.38V-8.59Q42.33 -9.57 41.79 -10.18Q41.24 -10.79 40.14 -10.79Q39.05 -10.79 38.48 -10.22Q37.91 -9.64 37.67 -8.79L36.4 -9.28Q36.64 -9.98 37.09 -10.62Q37.54 -11.25 38.3 -11.66Q39.07 -12.07 40.21 -12.07Q41.36 -12.07 42.18 -11.63Q42.99 -11.19 43.42 -10.41Q43.84 -9.64 43.84 -8.62Q43.84 -7.7 43.51 -6.94Q43.18 -6.17 42.59 -5.49Q42.01 -4.81 41.24 -4.13L38.05 -1.26ZM49.84 0H48.54L56.76 -11.87H58.07ZM49.22 -5.34Q48.37 -5.34 47.76 -5.73Q47.16 -6.12 46.84 -6.87Q46.53 -7.62 46.53 -8.7Q46.53 -9.79 46.84 -10.54Q47.16 -11.29 47.76 -11.68Q48.37 -12.07 49.22 -12.07Q50.08 -12.07 50.68 -11.68Q51.27 -11.29 51.59 -10.54Q51.9 -9.79 51.9 -8.7Q51.9 -7.62 51.59 -6.87Q51.27 -6.12 50.68 -5.73Q50.08 -5.34 49.22 -5.34ZM49.22 -6.22Q49.71 -6.22 50.03 -6.44Q50.35 -6.66 50.52 -7.11Q50.68 -7.55 50.68 -8.19V-9.21Q50.68 -9.86 50.52 -10.3Q50.35 -10.74 50.03 -10.96Q49.71 -11.19 49.22 -11.19Q48.72 -11.19 48.4 -10.96Q48.08 -10.74 47.91 -10.3Q47.75 -9.86 47.75 -9.21V-8.19Q47.75 -7.55 47.91 -7.11Q48.08 -6.66 48.4 -6.44Q48.72 -6.22 49.22 -6.22ZM57.39 0.2Q56.54 0.2 55.94 -0.19Q55.34 -0.58 55.02 -1.33Q54.71 -2.07 54.71 -3.16Q54.71 -4.25 55.02 -5Q55.34 -5.75 55.94 -6.14Q56.54 -6.53 57.39 -6.53Q58.26 -6.53 58.85 -6.14Q59.45 -5.75 59.76 -5Q60.08 -4.25 60.08 -3.16Q60.08 -2.07 59.76 -1.33Q59.45 -0.58 58.85 -0.19Q58.26 0.2 57.39 0.2ZM57.39 -0.68Q57.89 -0.68 58.21 -0.9Q58.53 -1.12 58.69 -1.56Q58.85 -2.01 58.85 -2.65V-3.67Q58.85 -4.32 58.69 -4.76Q58.53 -5.2 58.21 -5.42Q57.89 -5.64 57.39 -5.64Q56.9 -5.64 56.58 -5.42Q56.25 -5.2 56.09 -4.76Q55.93 -4.32 55.93 -3.67V-2.65Q55.93 -2.01 56.09 -1.56Q56.25 -1.12 56.58 -0.9Q56.9 -0.68 57.39 -0.68Z" fill="#3fbf7f"/><circle cx="1408.0" cy="189.5" r="35.0" fill="#000000"/><g transform="translate(1377.0 158.5) scale(0.96875)"><rect width="64" height="64" rx="32" fill="#22103a"></rect><defs><clipPath id="chr1"><rect width="64" height="64" rx="32"></rect></clipPath></defs><g clip-path="url(#chr1)"><circle cx="32" cy="32" r="26" fill="#31184f" opacity=".7"></circle><circle cx="32" cy="32" r="18" fill="#22103a"></circle><g fill="#8f57c4"><path d="M18 20l-3-8l7 3z"></path><path d="M46 20l3-8l-7 3z"></path></g><rect x="13" y="16" width="38" height="32" rx="15" fill="#c084fc"></rect><path d="M32 40l-4 6h8z" fill="#e3c2ff"></path><g><circle cx="25" cy="31" r="4" fill="#1b0d2e"></circle><circle cx="39" cy="31" r="4" fill="#1b0d2e"></circle><circle cx="26.3" cy="29.7" r="1.3" fill="#fff"></circle><circle cx="40.3" cy="29.7" r="1.3" fill="#fff"></circle></g><path d="M27 40h10" fill="none" stroke="#1b0d2e" stroke-width="2.4" stroke-linecap="round"></path></g></g><circle cx="1408.0" cy="310.5" r="35.0" fill="#000000"/><g transform="translate(1377.0 279.5) scale(0.96875)"><rect width="64" height="64" rx="32" fill="#12161b"></rect><defs><clipPath id="chr2"><rect width="64" height="64" rx="32"></rect></clipPath></defs><g clip-path="url(#chr2)"><path d="M14 25.5q-8-2-10 6 6 2 10-6z" fill="#5e73c9"></path><rect x="13" y="17.5" width="38" height="29" rx="14" fill="#8fa6ff"></rect><path d="M32 14q-3-6 0-8 3 2 0 8" fill="#c3cfff" opacity=".8"></path><g stroke="#0d1016" stroke-width="2.6" stroke-linecap="round" fill="none"><path d="M21.5 31q3.5-3 7 0"></path><path d="M35.5 31q3.5-3 7 0"></path></g><ellipse cx="32" cy="40" rx="3.2" ry="3.8" fill="#0d1016"></ellipse></g></g><circle cx="1322.5" cy="396.0" r="35.0" fill="#000000"/><g transform="translate(1291.5 365.0) scale(0.96875)"><rect width="64" height="64" rx="32" fill="#2b1207"></rect><defs><clipPath id="chr3"><rect width="64" height="64" rx="32"></rect></clipPath></defs><g clip-path="url(#chr3)"><path d="M0 44h64v20H0z" fill="#3d1c0b"></path><g fill="#b05f24"><circle cx="17" cy="17.5" r="7"></circle><circle cx="47" cy="17.5" r="7"></circle></g><rect x="14" y="15.5" width="36" height="33" rx="16" fill="#e2823a"></rect><g fill="#2a1206"><circle cx="25" cy="31" r="3.4"></circle><circle cx="39" cy="31" r="3.4"></circle></g><path d="M27 40h10" fill="none" stroke="#2a1206" stroke-width="2.4" stroke-linecap="round"></path></g></g><rect x="1347.5" y="400.0" width="71.0" height="26" rx="13" fill="#0d1a14" stroke="#3fbf7f" stroke-opacity="0.5"/><path transform="translate(1357.5 419.0)" d="M5.75 -1.05H4.45V-4.61H1.14V-5.76H4.45V-9.32H5.75V-5.76H9.06V-4.61H5.75ZM19.26 -7.51Q19.26 -6.19 18.88 -5.03Q18.5 -3.88 17.86 -2.91Q17.22 -1.94 16.48 -1.2Q15.74 -0.46 15.03 0H13.19Q14.47 -0.94 15.37 -1.82Q16.27 -2.7 16.86 -3.74Q17.46 -4.78 17.78 -6.15L17.7 -6.19Q17.43 -5.71 17.03 -5.32Q16.64 -4.93 16.11 -4.71Q15.57 -4.49 14.84 -4.49Q13.82 -4.49 13.03 -4.93Q12.24 -5.37 11.79 -6.2Q11.34 -7.02 11.34 -8.14Q11.34 -9.32 11.83 -10.2Q12.33 -11.08 13.21 -11.58Q14.09 -12.07 15.28 -12.07Q16.52 -12.07 17.41 -11.52Q18.29 -10.97 18.78 -9.95Q19.26 -8.93 19.26 -7.51ZM15.3 -5.7Q16.08 -5.7 16.63 -5.98Q17.19 -6.27 17.48 -6.83Q17.78 -7.4 17.78 -8.19V-8.33Q17.78 -9.13 17.48 -9.69Q17.19 -10.25 16.63 -10.54Q16.08 -10.83 15.3 -10.83Q14.52 -10.83 13.97 -10.54Q13.41 -10.25 13.12 -9.69Q12.82 -9.13 12.82 -8.33V-8.19Q12.82 -7.4 13.12 -6.83Q13.41 -6.27 13.97 -5.98Q14.52 -5.7 15.3 -5.7ZM22.71 0.2Q22.19 0.2 21.93 -0.08Q21.68 -0.36 21.68 -0.78V-1Q21.68 -1.45 21.93 -1.72Q22.19 -1.99 22.71 -1.99Q23.26 -1.99 23.5 -1.72Q23.75 -1.45 23.75 -1V-0.78Q23.75 -0.36 23.5 -0.08Q23.26 0.2 22.71 0.2ZM30.12 0.2Q28.78 0.2 27.86 -0.25Q26.95 -0.7 26.48 -1.48Q26.01 -2.26 26.01 -3.23Q26.01 -4.44 26.67 -5.16Q27.34 -5.88 28.41 -6.17V-6.31Q27.47 -6.63 26.92 -7.35Q26.37 -8.08 26.37 -9.1Q26.37 -10.46 27.36 -11.26Q28.36 -12.07 30.12 -12.07Q31.89 -12.07 32.89 -11.26Q33.88 -10.46 33.88 -9.1Q33.88 -8.08 33.33 -7.35Q32.78 -6.63 31.84 -6.31V-6.17Q32.91 -5.88 33.58 -5.16Q34.24 -4.44 34.24 -3.23Q34.24 -2.26 33.77 -1.48Q33.3 -0.7 32.39 -0.25Q31.48 0.2 30.12 0.2ZM30.12 -1.04Q31.37 -1.04 32.05 -1.6Q32.73 -2.16 32.73 -3.16V-3.52Q32.73 -4.52 32.05 -5.08Q31.37 -5.64 30.12 -5.64Q28.88 -5.64 28.2 -5.08Q27.52 -4.52 27.52 -3.52V-3.16Q27.52 -2.16 28.2 -1.6Q28.88 -1.04 30.12 -1.04ZM30.12 -6.83Q31.23 -6.83 31.82 -7.32Q32.4 -7.8 32.4 -8.7V-8.96Q32.4 -9.86 31.82 -10.34Q31.23 -10.83 30.12 -10.83Q29.02 -10.83 28.43 -10.34Q27.85 -9.86 27.85 -8.96V-8.7Q27.85 -7.8 28.43 -7.32Q29.02 -6.83 30.12 -6.83ZM39.64 0H38.34L46.56 -11.87H47.87ZM39.02 -5.34Q38.17 -5.34 37.56 -5.73Q36.96 -6.12 36.64 -6.87Q36.33 -7.62 36.33 -8.7Q36.33 -9.79 36.64 -10.54Q36.96 -11.29 37.56 -11.68Q38.17 -12.07 39.02 -12.07Q39.88 -12.07 40.48 -11.68Q41.07 -11.29 41.39 -10.54Q41.7 -9.79 41.7 -8.7Q41.7 -7.62 41.39 -6.87Q41.07 -6.12 40.48 -5.73Q39.88 -5.34 39.02 -5.34ZM39.02 -6.22Q39.51 -6.22 39.83 -6.44Q40.15 -6.66 40.32 -7.11Q40.48 -7.55 40.48 -8.19V-9.21Q40.48 -9.86 40.32 -10.3Q40.15 -10.74 39.83 -10.96Q39.51 -11.19 39.02 -11.19Q38.52 -11.19 38.2 -10.96Q37.88 -10.74 37.71 -10.3Q37.55 -9.86 37.55 -9.21V-8.19Q37.55 -7.55 37.71 -7.11Q37.88 -6.66 38.2 -6.44Q38.52 -6.22 39.02 -6.22ZM47.19 0.2Q46.34 0.2 45.74 -0.19Q45.14 -0.58 44.82 -1.33Q44.51 -2.07 44.51 -3.16Q44.51 -4.25 44.82 -5Q45.14 -5.75 45.74 -6.14Q46.34 -6.53 47.19 -6.53Q48.06 -6.53 48.65 -6.14Q49.25 -5.75 49.56 -5Q49.88 -4.25 49.88 -3.16Q49.88 -2.07 49.56 -1.33Q49.25 -0.58 48.65 -0.19Q48.06 0.2 47.19 0.2ZM47.19 -0.68Q47.69 -0.68 48.01 -0.9Q48.33 -1.12 48.49 -1.56Q48.65 -2.01 48.65 -2.65V-3.67Q48.65 -4.32 48.49 -4.76Q48.33 -5.2 48.01 -5.42Q47.69 -5.64 47.19 -5.64Q46.7 -5.64 46.38 -5.42Q46.05 -5.2 45.89 -4.76Q45.73 -4.32 45.73 -3.67V-2.65Q45.73 -2.01 45.89 -1.56Q46.05 -1.12 46.38 -0.9Q46.7 -0.68 47.19 -0.68Z" fill="#3fbf7f"/><circle cx="1201.5" cy="396.0" r="35.0" fill="#000000"/><g transform="translate(1170.5 365.0) scale(0.96875)"><rect width="64" height="64" rx="32" fill="#0a2419"></rect><defs><clipPath id="chr4"><rect width="64" height="64" rx="32"></rect></clipPath></defs><g clip-path="url(#chr4)"><path d="M2 62a30 30 0 0 1 60 0z" fill="#0f3626"></path><rect x="14" y="18" width="36" height="28" rx="13" fill="#3fbf7f"></rect><circle cx="22" cy="20" r="7" fill="#3fbf7f"></circle><circle cx="42" cy="20" r="7" fill="#3fbf7f"></circle><g><circle cx="25" cy="31" r="4" fill="#042114"></circle><circle cx="39" cy="31" r="4" fill="#042114"></circle><circle cx="26.3" cy="29.7" r="1.3" fill="#fff"></circle><circle cx="40.3" cy="29.7" r="1.3" fill="#fff"></circle></g><path d="M27 39q5 5 10 0" fill="none" stroke="#042114" stroke-width="2.4" stroke-linecap="round"></path></g></g><rect x="1095.4" y="400.0" width="81.2" height="26" rx="13" fill="#0d1a14" stroke="#3fbf7f" stroke-opacity="0.5"/><path transform="translate(1105.4 419.0)" d="M5.75 -1.05H4.45V-4.61H1.14V-5.76H4.45V-9.32H5.75V-5.76H9.06V-4.61H5.75ZM19.26 -1.26V0H11.48V-1.46L15.35 -5.03Q16.18 -5.8 16.75 -6.66Q17.31 -7.53 17.31 -8.38V-8.59Q17.31 -9.57 16.76 -10.18Q16.22 -10.79 15.11 -10.79Q14.03 -10.79 13.46 -10.22Q12.89 -9.64 12.65 -8.79L11.37 -9.28Q11.61 -9.98 12.06 -10.62Q12.51 -11.25 13.28 -11.66Q14.04 -12.07 15.18 -12.07Q16.34 -12.07 17.15 -11.63Q17.97 -11.19 18.39 -10.41Q18.82 -9.64 18.82 -8.62Q18.82 -7.7 18.49 -6.94Q18.16 -6.17 17.57 -5.49Q16.98 -4.81 16.22 -4.13L13.02 -1.26ZM29.7 0H21.9V-1.26H25.21V-10.81H25.09L22.1 -8.02L21.27 -8.93L24.41 -11.87H26.64V-1.26H29.7ZM32.91 0.2Q32.39 0.2 32.13 -0.08Q31.88 -0.36 31.88 -0.78V-1Q31.88 -1.45 32.13 -1.72Q32.39 -1.99 32.91 -1.99Q33.46 -1.99 33.7 -1.72Q33.95 -1.45 33.95 -1V-0.78Q33.95 -0.36 33.7 -0.08Q33.46 0.2 32.91 0.2ZM43.69 -11.87V-10.61H38.49L38.15 -6.09H38.27Q38.56 -6.49 38.88 -6.78Q39.2 -7.07 39.64 -7.23Q40.09 -7.4 40.7 -7.4Q41.72 -7.4 42.52 -6.95Q43.32 -6.51 43.78 -5.7Q44.23 -4.88 44.23 -3.72Q44.23 -2.57 43.76 -1.68Q43.28 -0.8 42.39 -0.3Q41.5 0.2 40.24 0.2Q39.25 0.2 38.56 -0.09Q37.86 -0.39 37.37 -0.85Q36.89 -1.31 36.53 -1.82L37.6 -2.64Q38.06 -1.94 38.62 -1.5Q39.17 -1.07 40.24 -1.07Q41.45 -1.07 42.08 -1.72Q42.72 -2.36 42.72 -3.54V-3.71Q42.72 -4.88 42.08 -5.53Q41.45 -6.17 40.24 -6.17Q39.42 -6.17 38.96 -5.87Q38.49 -5.58 38.11 -5.17L36.91 -5.34L37.33 -11.87ZM49.84 0H48.54L56.76 -11.87H58.07ZM49.22 -5.34Q48.37 -5.34 47.76 -5.73Q47.16 -6.12 46.84 -6.87Q46.53 -7.62 46.53 -8.7Q46.53 -9.79 46.84 -10.54Q47.16 -11.29 47.76 -11.68Q48.37 -12.07 49.22 -12.07Q50.08 -12.07 50.68 -11.68Q51.27 -11.29 51.59 -10.54Q51.9 -9.79 51.9 -8.7Q51.9 -7.62 51.59 -6.87Q51.27 -6.12 50.68 -5.73Q50.08 -5.34 49.22 -5.34ZM49.22 -6.22Q49.71 -6.22 50.03 -6.44Q50.35 -6.66 50.52 -7.11Q50.68 -7.55 50.68 -8.19V-9.21Q50.68 -9.86 50.52 -10.3Q50.35 -10.74 50.03 -10.96Q49.71 -11.19 49.22 -11.19Q48.72 -11.19 48.4 -10.96Q48.08 -10.74 47.91 -10.3Q47.75 -9.86 47.75 -9.21V-8.19Q47.75 -7.55 47.91 -7.11Q48.08 -6.66 48.4 -6.44Q48.72 -6.22 49.22 -6.22ZM57.39 0.2Q56.54 0.2 55.94 -0.19Q55.34 -0.58 55.02 -1.33Q54.71 -2.07 54.71 -3.16Q54.71 -4.25 55.02 -5Q55.34 -5.75 55.94 -6.14Q56.54 -6.53 57.39 -6.53Q58.26 -6.53 58.85 -6.14Q59.45 -5.75 59.76 -5Q60.08 -4.25 60.08 -3.16Q60.08 -2.07 59.76 -1.33Q59.45 -0.58 58.85 -0.19Q58.26 0.2 57.39 0.2ZM57.39 -0.68Q57.89 -0.68 58.21 -0.9Q58.53 -1.12 58.69 -1.56Q58.85 -2.01 58.85 -2.65V-3.67Q58.85 -4.32 58.69 -4.76Q58.53 -5.2 58.21 -5.42Q57.89 -5.64 57.39 -5.64Q56.9 -5.64 56.58 -5.42Q56.25 -5.2 56.09 -4.76Q55.93 -4.32 55.93 -3.67V-2.65Q55.93 -2.01 56.09 -1.56Q56.25 -1.12 56.58 -0.9Q56.9 -0.68 57.39 -0.68Z" fill="#3fbf7f"/><circle cx="1116.0" cy="310.5" r="35.0" fill="#000000"/><g transform="translate(1085.0 279.5) scale(0.96875)"><rect width="64" height="64" rx="32" fill="#111a24"></rect><defs><clipPath id="chr5"><rect width="64" height="64" rx="32"></rect></clipPath></defs><g clip-path="url(#chr5)"><circle cx="32" cy="32" r="26" fill="#1a2734" opacity=".7"></circle><circle cx="32" cy="32" r="18" fill="#111a24"></circle><g stroke="#6ba3bb" stroke-width="2.5" stroke-linecap="round" fill="#d6f0fb"><line x1="32" y1="19" x2="32" y2="9"></line><circle cx="32" cy="9" r="2.6" stroke="none"></circle></g><rect x="15" y="17" width="34" height="30" rx="6" fill="#9fd4e8"></rect><g fill="#6ba3bb"><rect x="12" y="30" width="4" height="8" rx="2"></rect><rect x="48" y="30" width="4" height="8" rx="2"></rect></g><g fill="#0c141d"><path d="M21 29h8l-8 4z"></path><path d="M43 29h-8l8 4z"></path></g><ellipse cx="32" cy="40" rx="3.2" ry="3.8" fill="#0c141d"></ellipse></g></g><circle cx="1116.0" cy="189.5" r="35.0" fill="#000000"/><g transform="translate(1085.0 158.5) scale(0.96875)"><rect width="64" height="64" rx="32" fill="#2d0f1b"></rect><defs><clipPath id="chr6"><rect width="64" height="64" rx="32"></rect></clipPath></defs><g clip-path="url(#chr6)"><circle cx="32" cy="32" r="22" fill="none" stroke="#421627" stroke-width="6"></circle><g fill="#b04a67"><rect x="21" y="3" width="6" height="19" rx="3"></rect><rect x="37" y="3" width="6" height="19" rx="3"></rect></g><rect x="17" y="16" width="30" height="32" rx="14" fill="#e5708f"></rect><g stroke="#280d18" stroke-width="2.6" stroke-linecap="round" fill="none"><path d="M21.5 31q3.5-3 7 0"></path><path d="M35.5 31q3.5-3 7 0"></path></g><path d="M27 40h10" fill="none" stroke="#280d18" stroke-width="2.4" stroke-linecap="round"></path></g></g><circle cx="1201.5" cy="104.0" r="35.0" fill="#000000"/><g transform="translate(1170.5 73.0) scale(0.96875)"><rect width="64" height="64" rx="32" fill="#2a220a"></rect><defs><clipPath id="chr7"><rect width="64" height="64" rx="32"></rect></clipPath></defs><g clip-path="url(#chr7)"><rect x="17" y="17" width="30" height="30" rx="15" fill="#e2c33a"></rect><path d="M32 36l-5 5 5 4 5-4z" fill="#ffe993"></path><g fill="#241d08"><circle cx="25" cy="31" r="3.4"></circle><circle cx="39" cy="31" r="3.4"></circle></g><path d="M27 39q5 5 10 0" fill="none" stroke="#241d08" stroke-width="2.4" stroke-linecap="round"></path></g></g><g transform="translate(427 92) scale(0.8)"><path fill="url(#g)" fill-rule="evenodd" d="M85.21 42.52A36 36 0 1 1 55.01 14.35L63.62 23.27L53.34 26.23A24 24 0 1 0 73.48 45.01ZM41.5 50a8.5 8.5 0 1 0 17 0a8.5 8.5 0 1 0 -17 0Z"/><path d="M118.64 64V52.92L119.8 56.12L107.64 36H113.2L122.96 52.2H119.84L129.68 36H134.8L122.64 56.12L123.84 52.92V64ZM143.4 64V36H148.6V64ZM161.36 64V36H181.8V40.36H166.56V59.64H182.36V64ZM166.16 51.92V47.64H180.08V51.92ZM193.36 64V36H198.56V59.6H213.2V64ZM222.52 64V36H234.76Q239.32 36 242.76 37.76Q246.2 39.52 248.12 42.64Q250.04 45.76 250.04 50Q250.04 54.2 248.12 57.34Q246.2 60.48 242.76 62.24Q239.32 64 234.76 64ZM227.72 59.6H234.52Q237.64 59.6 239.96 58.4Q242.28 57.2 243.54 55.04Q244.8 52.88 244.8 50Q244.8 47.08 243.54 44.94Q242.28 42.8 239.96 41.6Q237.64 40.4 234.52 40.4H227.72Z" fill="#e8e8e8"/><path d="M273.72 64.4Q270.52 64.4 267.78 63.34Q265.04 62.28 263.02 60.34Q261 58.4 259.88 55.76Q258.76 53.12 258.76 50Q258.76 46.88 259.88 44.24Q261 41.6 263.04 39.66Q265.08 37.72 267.8 36.66Q270.52 35.6 273.76 35.6Q277.2 35.6 280.04 36.78Q282.88 37.96 284.84 40.28L281.48 43.44Q279.96 41.8 278.08 40.98Q276.2 40.16 274 40.16Q271.8 40.16 269.98 40.88Q268.16 41.6 266.82 42.92Q265.48 44.24 264.74 46.04Q264 47.84 264 50Q264 52.16 264.74 53.96Q265.48 55.76 266.82 57.08Q268.16 58.4 269.98 59.12Q271.8 59.84 274 59.84Q276.2 59.84 278.08 59.02Q279.96 58.2 281.48 56.52L284.84 59.72Q282.88 62 280.04 63.2Q277.2 64.4 273.72 64.4ZM294.68 64V36H299.88V64ZM312.64 64V36H324.12Q329.72 36 332.9 38.64Q336.08 41.28 336.08 45.96Q336.08 49.04 334.64 51.26Q333.2 53.48 330.54 54.66Q327.88 55.84 324.16 55.84H315.52L317.84 53.48V64ZM330.96 64 323.88 53.84H329.44L336.56 64ZM317.84 54.04 315.52 51.56H323.92Q327.36 51.56 329.1 50.08Q330.84 48.6 330.84 45.96Q330.84 43.28 329.1 41.84Q327.36 40.4 323.92 40.4H315.52L317.84 37.84ZM360.04 64.4Q356.84 64.4 354.1 63.34Q351.36 62.28 349.34 60.34Q347.32 58.4 346.2 55.76Q345.08 53.12 345.08 50Q345.08 46.88 346.2 44.24Q347.32 41.6 349.36 39.66Q351.4 37.72 354.12 36.66Q356.84 35.6 360.08 35.6Q363.52 35.6 366.36 36.78Q369.2 37.96 371.16 40.28L367.8 43.44Q366.28 41.8 364.4 40.98Q362.52 40.16 360.32 40.16Q358.12 40.16 356.3 40.88Q354.48 41.6 353.14 42.92Q351.8 44.24 351.06 46.04Q350.32 47.84 350.32 50Q350.32 52.16 351.06 53.96Q351.8 55.76 353.14 57.08Q354.48 58.4 356.3 59.12Q358.12 59.84 360.32 59.84Q362.52 59.84 364.4 59.02Q366.28 58.2 367.8 56.52L371.16 59.72Q369.2 62 366.36 63.2Q363.52 64.4 360.04 64.4ZM381 64V36H386.2V59.6H400.84V64ZM410.16 64V36H430.6V40.36H415.36V59.64H431.16V64ZM414.96 51.92V47.64H428.88V51.92Z" fill="url(#gg)"/></g><path d="M456.79 232.54Q452.37 232.54 448.32 231.27Q444.27 230 441.89 228L444.32 222.55Q446.59 224.33 449.94 225.52Q453.28 226.71 456.79 226.71Q459.76 226.71 461.6 226.06Q463.44 225.41 464.3 224.31Q465.16 223.2 465.16 221.79Q465.16 220.07 463.92 219.01Q462.68 217.96 460.71 217.34Q458.74 216.72 456.34 216.18Q453.93 215.64 451.53 214.91Q449.13 214.18 447.15 213.02Q445.18 211.86 443.94 209.91Q442.7 207.97 442.7 204.95Q442.7 201.87 444.35 199.3Q445.99 196.74 449.37 195.2Q452.74 193.66 457.93 193.66Q461.33 193.66 464.68 194.52Q468.03 195.39 470.51 197.01L468.3 202.46Q465.76 200.95 463.06 200.22Q460.36 199.49 457.87 199.49Q454.96 199.49 453.15 200.19Q451.34 200.9 450.5 202.03Q449.67 203.16 449.67 204.62Q449.67 206.35 450.88 207.4Q452.1 208.46 454.07 209.05Q456.04 209.64 458.47 210.21Q460.9 210.78 463.3 211.48Q465.7 212.18 467.68 213.32Q469.65 214.45 470.86 216.39Q472.08 218.34 472.08 221.31Q472.08 224.33 470.43 226.9Q468.78 229.46 465.38 231Q461.98 232.54 456.79 232.54ZM491.35 232.38Q486.93 232.38 483.47 230.46Q480.01 228.54 478.02 225.2Q476.02 221.85 476.02 217.58Q476.02 213.26 478.02 209.94Q480.01 206.62 483.47 204.73Q486.93 202.84 491.35 202.84Q495.84 202.84 499.32 204.73Q502.8 206.62 504.77 209.91Q506.74 213.21 506.74 217.58Q506.74 221.85 504.77 225.2Q502.8 228.54 499.32 230.46Q495.84 232.38 491.35 232.38ZM491.35 226.6Q493.84 226.6 495.78 225.52Q497.73 224.44 498.83 222.39Q499.94 220.34 499.94 217.58Q499.94 214.77 498.83 212.75Q497.73 210.72 495.78 209.64Q493.84 208.56 491.41 208.56Q488.92 208.56 487.01 209.64Q485.09 210.72 483.96 212.75Q482.82 214.77 482.82 217.58Q482.82 220.34 483.96 222.39Q485.09 224.44 487.01 225.52Q488.92 226.6 491.35 226.6ZM526.45 232.38Q521.92 232.38 518.38 230.46Q514.84 228.54 512.85 225.2Q510.85 221.85 510.85 217.58Q510.85 213.26 512.85 209.94Q514.84 206.62 518.38 204.73Q521.92 202.84 526.45 202.84Q530.67 202.84 533.88 204.54Q537.09 206.24 538.77 209.54L533.58 212.56Q532.29 210.51 530.42 209.54Q528.56 208.56 526.4 208.56Q523.92 208.56 521.92 209.64Q519.92 210.72 518.79 212.75Q517.65 214.77 517.65 217.58Q517.65 220.39 518.79 222.41Q519.92 224.44 521.92 225.52Q523.92 226.6 526.4 226.6Q528.56 226.6 530.42 225.63Q532.29 224.66 533.58 222.6L538.77 225.63Q537.09 228.87 533.88 230.62Q530.67 232.38 526.45 232.38ZM544.6 232V203.16H551.35V232ZM548 198.41Q546.11 198.41 544.89 197.22Q543.68 196.04 543.68 194.36Q543.68 192.63 544.89 191.47Q546.11 190.31 548 190.31Q549.89 190.31 551.11 191.42Q552.32 192.53 552.32 194.2Q552.32 195.98 551.13 197.2Q549.94 198.41 548 198.41ZM577.97 232V226.17L577.59 224.93V214.72Q577.59 211.75 575.81 210.1Q574.03 208.46 570.41 208.46Q567.98 208.46 565.63 209.21Q563.28 209.97 561.66 211.32L559.02 206.4Q561.34 204.62 564.55 203.73Q567.76 202.84 571.22 202.84Q577.48 202.84 580.91 205.84Q584.34 208.83 584.34 215.1V232ZM568.9 232.38Q565.66 232.38 563.23 231.27Q560.8 230.16 559.47 228.19Q558.15 226.22 558.15 223.74Q558.15 221.31 559.31 219.36Q560.47 217.42 563.12 216.29Q565.77 215.15 570.14 215.15H578.51V219.63H570.63Q567.17 219.63 565.98 220.74Q564.79 221.85 564.79 223.47Q564.79 225.3 566.25 226.38Q567.71 227.46 570.3 227.46Q572.79 227.46 574.76 226.33Q576.73 225.2 577.59 222.98L578.73 227.03Q577.75 229.57 575.24 230.97Q572.73 232.38 568.9 232.38ZM592.98 232V191.93H599.73V232ZM625.87 242.85Q623.76 242.85 621.66 242.15Q619.55 241.45 618.15 240.21L620.85 235.24Q621.87 236.16 623.17 236.7Q624.46 237.24 625.81 237.24Q627.65 237.24 628.78 236.32Q629.92 235.4 630.89 233.24L632.56 229.46L633.1 228.65L644.01 203.16H650.49L636.99 234.32Q635.64 237.56 633.99 239.45Q632.35 241.34 630.32 242.1Q628.3 242.85 625.87 242.85ZM631.81 233.03 618.79 203.16H625.81L636.4 228.06ZM654.7 232V203.16H661.45V232ZM658.11 198.41Q656.22 198.41 655 197.22Q653.79 196.04 653.79 194.36Q653.79 192.63 655 191.47Q656.22 190.31 658.11 190.31Q660 190.31 661.21 191.42Q662.43 192.53 662.43 194.2Q662.43 195.98 661.24 197.2Q660.05 198.41 658.11 198.41ZM683.86 232.38Q679.06 232.38 675.47 230.46Q671.88 228.54 669.9 225.2Q667.93 221.85 667.93 217.58Q667.93 213.26 669.85 209.94Q671.77 206.62 675.14 204.73Q678.52 202.84 682.84 202.84Q687.05 202.84 690.34 204.68Q693.64 206.51 695.53 209.86Q697.42 213.21 697.42 217.74Q697.42 218.18 697.39 218.72Q697.36 219.26 697.31 219.74H673.28V215.26H693.75L691.1 216.66Q691.15 214.18 690.07 212.29Q688.99 210.4 687.13 209.32Q685.27 208.24 682.84 208.24Q680.35 208.24 678.49 209.32Q676.63 210.4 675.57 212.32Q674.52 214.23 674.52 216.83V217.91Q674.52 220.5 675.71 222.5Q676.9 224.49 679.06 225.57Q681.22 226.65 684.03 226.65Q686.46 226.65 688.4 225.9Q690.34 225.14 691.86 223.52L695.47 227.68Q693.53 229.95 690.59 231.16Q687.64 232.38 683.86 232.38ZM703.9 232V191.93H710.65V232ZM731.71 232.38Q727.55 232.38 724.23 230.51Q720.91 228.65 719.02 225.36Q717.13 222.06 717.13 217.58Q717.13 213.1 719.02 209.81Q720.91 206.51 724.23 204.68Q727.55 202.84 731.71 202.84Q735.33 202.84 738.19 204.43Q741.05 206.03 742.72 209.27Q744.4 212.51 744.4 217.58Q744.4 222.6 742.78 225.87Q741.16 229.14 738.3 230.76Q735.43 232.38 731.71 232.38ZM732.52 226.6Q734.95 226.6 736.86 225.52Q738.78 224.44 739.94 222.39Q741.1 220.34 741.1 217.58Q741.1 214.77 739.94 212.75Q738.78 210.72 736.86 209.64Q734.95 208.56 732.52 208.56Q730.09 208.56 728.17 209.64Q726.25 210.72 725.09 212.75Q723.93 214.77 723.93 217.58Q723.93 220.34 725.09 222.39Q726.25 224.44 728.17 225.52Q730.09 226.6 732.52 226.6ZM741.27 232V225.2L741.54 217.53L741 209.86V191.93H747.69V232ZM772.42 232V201.54Q772.42 197.01 775.1 194.28Q777.77 191.55 782.74 191.55Q784.52 191.55 786.11 191.93Q787.71 192.31 788.79 193.12L786.95 198.2Q786.19 197.6 785.22 197.31Q784.25 197.01 783.22 197.01Q781.12 197.01 780.04 198.17Q778.96 199.33 778.96 201.65V204.89L779.17 207.92V232ZM767.67 208.78V203.38H786.9V208.78ZM809.2 232V226.17L808.82 224.93V214.72Q808.82 211.75 807.04 210.1Q805.26 208.46 801.64 208.46Q799.21 208.46 796.86 209.21Q794.51 209.97 792.89 211.32L790.24 206.4Q792.57 204.62 795.78 203.73Q798.99 202.84 802.45 202.84Q808.71 202.84 812.14 205.84Q815.57 208.83 815.57 215.1V232ZM800.13 232.38Q796.89 232.38 794.46 231.27Q792.03 230.16 790.7 228.19Q789.38 226.22 789.38 223.74Q789.38 221.31 790.54 219.36Q791.7 217.42 794.35 216.29Q796.99 215.15 801.37 215.15H809.74V219.63H801.85Q798.4 219.63 797.21 220.74Q796.02 221.85 796.02 223.47Q796.02 225.3 797.48 226.38Q798.94 227.46 801.53 227.46Q804.01 227.46 805.98 226.33Q807.96 225.2 808.82 222.98L809.95 227.03Q808.98 229.57 806.47 230.97Q803.96 232.38 800.13 232.38ZM824.21 232V203.16H830.64V211.1L829.88 208.78Q831.18 205.86 833.96 204.35Q836.74 202.84 840.9 202.84V209.27Q840.46 209.16 840.09 209.13Q839.71 209.1 839.33 209.1Q835.5 209.1 833.23 211.34Q830.96 213.59 830.96 218.01V232ZM846.89 232V203.16H853.32V210.83L852.18 208.56Q853.64 205.76 856.42 204.3Q859.2 202.84 862.77 202.84Q866.82 202.84 869.81 204.84Q872.81 206.84 873.78 210.89L871.14 209.97Q872.54 206.73 875.78 204.78Q879.02 202.84 883.29 202.84Q886.74 202.84 889.41 204.19Q892.09 205.54 893.6 208.32Q895.11 211.1 895.11 215.48V232H888.36V216.34Q888.36 212.51 886.69 210.62Q885.01 208.73 881.88 208.73Q879.67 208.73 877.97 209.7Q876.27 210.67 875.32 212.56Q874.38 214.45 874.38 217.37V232H867.63V216.34Q867.63 212.51 865.95 210.62Q864.28 208.73 861.15 208.73Q858.93 208.73 857.23 209.7Q855.53 210.67 854.58 212.56Q853.64 214.45 853.64 217.37V232ZM903.75 232V203.16H910.5V232ZM907.15 198.41Q905.26 198.41 904.05 197.22Q902.83 196.04 902.83 194.36Q902.83 192.63 904.05 191.47Q905.26 190.31 907.15 190.31Q909.04 190.31 910.26 191.42Q911.47 192.53 911.47 194.2Q911.47 195.98 910.29 197.2Q909.1 198.41 907.15 198.41ZM919.36 232V203.16H925.78V210.94L924.65 208.56Q926.16 205.81 929.05 204.32Q931.94 202.84 935.72 202.84Q939.18 202.84 941.9 204.19Q944.63 205.54 946.2 208.32Q947.76 211.1 947.76 215.48V232H941.01V216.34Q941.01 212.51 939.2 210.62Q937.39 208.73 934.15 208.73Q931.78 208.73 929.94 209.7Q928.11 210.67 927.11 212.59Q926.11 214.5 926.11 217.42V232ZM969.42 242.85Q965.42 242.85 961.61 241.8Q957.81 240.75 955.38 238.75L958.4 233.67Q960.29 235.24 963.18 236.19Q966.07 237.13 969.04 237.13Q973.79 237.13 976 234.94Q978.22 232.76 978.22 228.38V223.25L978.76 216.72L978.54 210.18V203.16H984.97V227.63Q984.97 235.46 980.97 239.15Q976.98 242.85 969.42 242.85ZM968.55 230.7Q964.45 230.7 961.13 228.95Q957.81 227.19 955.89 224.06Q953.97 220.93 953.97 216.72Q953.97 212.56 955.89 209.43Q957.81 206.3 961.13 204.57Q964.45 202.84 968.55 202.84Q972.22 202.84 975.14 204.3Q978.06 205.76 979.81 208.83Q981.57 211.91 981.57 216.72Q981.57 221.52 979.81 224.63Q978.06 227.73 975.14 229.22Q972.22 230.7 968.55 230.7ZM969.58 224.98Q972.12 224.98 974.11 223.93Q976.11 222.87 977.22 221.01Q978.33 219.15 978.33 216.72Q978.33 214.29 977.22 212.43Q976.11 210.56 974.11 209.56Q972.12 208.56 969.58 208.56Q967.04 208.56 965.01 209.56Q962.99 210.56 961.88 212.43Q960.78 214.29 960.78 216.72Q960.78 219.15 961.88 221.01Q962.99 222.87 965.01 223.93Q967.04 224.98 969.58 224.98ZM995.98 232.38Q994.15 232.38 992.85 231.11Q991.56 229.84 991.56 227.9Q991.56 225.84 992.85 224.63Q994.15 223.41 995.98 223.41Q997.82 223.41 999.12 224.63Q1000.41 225.84 1000.41 227.9Q1000.41 229.84 999.12 231.11Q997.82 232.38 995.98 232.38Z" fill="#e8e8e8"/><path d="M446.65 288.28Q444.71 288.28 443.32 287.53Q441.93 286.78 440.97 285.47L442.39 284.27Q443.24 285.4 444.28 285.99Q445.31 286.57 446.72 286.57Q448.44 286.57 449.35 285.75Q450.26 284.92 450.26 283.54Q450.26 282.78 449.96 282.25Q449.66 281.72 449 281.36Q448.35 281.01 447.29 280.78L445.98 280.48Q444.53 280.13 443.52 279.58Q442.51 279.03 441.98 278.16Q441.45 277.28 441.45 276.06Q441.45 274.64 442.12 273.66Q442.78 272.68 443.99 272.18Q445.2 271.67 446.76 271.67Q448.58 271.67 449.88 272.34Q451.18 273 452.07 274.29L450.63 275.35Q449.98 274.43 449.03 273.9Q448.07 273.37 446.67 273.37Q445.13 273.37 444.24 274.04Q443.36 274.71 443.36 275.99Q443.36 276.75 443.69 277.26Q444.02 277.76 444.69 278.1Q445.36 278.43 446.37 278.66L447.68 278.96Q449.25 279.31 450.24 279.9Q451.22 280.5 451.7 281.38Q452.17 282.25 452.17 283.45Q452.17 284.92 451.5 286Q450.83 287.08 449.6 287.68Q448.37 288.28 446.65 288.28ZM459.78 288.28Q458.17 288.28 456.97 287.51Q455.78 286.74 455.11 285.34Q454.44 283.95 454.44 282.07Q454.44 280.18 455.11 278.79Q455.78 277.4 456.97 276.63Q458.17 275.86 459.78 275.86Q461.37 275.86 462.52 276.6Q463.67 277.35 464.29 278.66Q464.91 279.97 464.91 281.65V282.53H456.38V283.08Q456.38 284.62 457.31 285.64Q458.24 286.67 459.89 286.67Q461.02 286.67 461.86 286.14Q462.7 285.61 463.16 284.62L464.47 285.56Q463.9 286.76 462.68 287.52Q461.46 288.28 459.78 288.28ZM459.78 277.4Q458.79 277.4 458.02 277.86Q457.25 278.32 456.81 279.13Q456.38 279.95 456.38 280.99V281.15H462.93V280.89Q462.93 279.83 462.54 279.05Q462.15 278.27 461.44 277.83Q460.72 277.4 459.78 277.4ZM472.41 288.28Q470.8 288.28 469.6 287.51Q468.41 286.74 467.74 285.34Q467.07 283.95 467.07 282.07Q467.07 280.18 467.74 278.79Q468.41 277.4 469.6 276.63Q470.8 275.86 472.41 275.86Q473.99 275.86 475.14 276.6Q476.29 277.35 476.91 278.66Q477.54 279.97 477.54 281.65V282.53H469V283.08Q469 284.62 469.93 285.64Q470.87 286.67 472.52 286.67Q473.65 286.67 474.49 286.14Q475.33 285.61 475.79 284.62L477.1 285.56Q476.52 286.76 475.31 287.52Q474.09 288.28 472.41 288.28ZM472.41 277.4Q471.42 277.4 470.65 277.86Q469.88 278.32 469.44 279.13Q469 279.95 469 280.99V281.15H475.56V280.89Q475.56 279.83 475.17 279.05Q474.78 278.27 474.06 277.83Q473.35 277.4 472.41 277.4ZM487.93 288 484.76 276.13H486.55L487.82 281.26L489.08 286.46H489.13L490.58 281.26L492.07 276.13H493.71L495.25 281.26L496.72 286.46H496.76L497.98 281.26L499.27 276.13H501L497.85 288H495.57L493.91 282.3L492.88 278.69H492.83L491.82 282.3L490.16 288ZM503.66 288V270.98H505.5V278.06H505.6Q506.03 277.05 506.83 276.45Q507.62 275.86 508.95 275.86Q510.79 275.86 511.86 277.04Q512.93 278.23 512.93 280.39V288H511.09V280.71Q511.09 279.12 510.41 278.32Q509.74 277.51 508.4 277.51Q507.67 277.51 507 277.75Q506.33 278 505.92 278.5Q505.5 279.01 505.5 279.77V288ZM526.39 288H525.35Q524.62 288 524.16 287.69Q523.7 287.38 523.49 286.83Q523.28 286.27 523.28 285.56V285.4L524 286.07H523.19Q522.82 287.15 521.91 287.71Q521.01 288.28 519.76 288.28Q517.88 288.28 516.83 287.31Q515.78 286.34 515.78 284.69Q515.78 283.56 516.34 282.79Q516.89 282.02 518 281.62Q519.12 281.21 520.85 281.21H523.19V280.04Q523.19 278.78 522.5 278.11Q521.81 277.44 520.38 277.44Q519.33 277.44 518.59 277.93Q517.86 278.41 517.37 279.21L516.27 278.18Q516.75 277.24 517.81 276.55Q518.87 275.86 520.48 275.86Q522.62 275.86 523.82 276.91Q525.03 277.97 525.03 279.86V286.39H526.39ZM523.19 282.6H520.75Q519.19 282.6 518.45 283.06Q517.72 283.51 517.72 284.39V284.87Q517.72 285.75 518.36 286.23Q519 286.71 520.06 286.71Q520.98 286.71 521.68 286.42Q522.39 286.14 522.79 285.64Q523.19 285.15 523.19 284.55ZM533.93 288H531.63Q530.69 288 530.18 287.45Q529.68 286.9 529.68 286.05V277.74H527.72V276.13H528.83Q529.42 276.13 529.64 275.89Q529.86 275.65 529.86 275.05V272.84H531.52V276.13H534.12V277.74H531.52V286.39H533.93ZM546.97 288.28Q545.36 288.28 544.17 287.51Q542.97 286.74 542.3 285.34Q541.64 283.95 541.64 282.07Q541.64 280.18 542.3 278.79Q542.97 277.4 544.17 276.63Q545.36 275.86 546.97 275.86Q548.56 275.86 549.71 276.6Q550.86 277.35 551.48 278.66Q552.1 279.97 552.1 281.65V282.53H543.57V283.08Q543.57 284.62 544.5 285.64Q545.43 286.67 547.09 286.67Q548.22 286.67 549.05 286.14Q549.89 285.61 550.35 284.62L551.67 285.56Q551.09 286.76 549.87 287.52Q548.65 288.28 546.97 288.28ZM546.97 277.4Q545.98 277.4 545.21 277.86Q544.44 278.32 544.01 279.13Q543.57 279.95 543.57 280.99V281.15H550.12V280.89Q550.12 279.83 549.73 279.05Q549.34 278.27 548.63 277.83Q547.92 277.4 546.97 277.4ZM559.9 288H557.76L553.6 276.13H555.44L557.51 282.02L558.79 286.07H558.91L560.2 282.02L562.31 276.13H564.09ZM570.92 288.28Q569.31 288.28 568.11 287.51Q566.91 286.74 566.25 285.34Q565.58 283.95 565.58 282.07Q565.58 280.18 566.25 278.79Q566.91 277.4 568.11 276.63Q569.31 275.86 570.92 275.86Q572.5 275.86 573.65 276.6Q574.8 277.35 575.42 278.66Q576.05 279.97 576.05 281.65V282.53H567.51V283.08Q567.51 284.62 568.44 285.64Q569.38 286.67 571.03 286.67Q572.16 286.67 573 286.14Q573.84 285.61 574.3 284.62L575.61 285.56Q575.03 286.76 573.81 287.52Q572.6 288.28 570.92 288.28ZM570.92 277.4Q569.93 277.4 569.16 277.86Q568.39 278.32 567.95 279.13Q567.51 279.95 567.51 280.99V281.15H574.07V280.89Q574.07 279.83 573.68 279.05Q573.28 278.27 572.57 277.83Q571.86 277.4 570.92 277.4ZM580.92 288H579.08V276.13H580.92V278.32H581.04Q581.24 277.74 581.68 277.25Q582.12 276.75 582.81 276.44Q583.5 276.13 584.46 276.13H585.18V277.97H584.1Q583.11 277.97 582.39 278.24Q581.68 278.5 581.3 278.94Q580.92 279.38 580.92 279.95ZM591.96 284.2 594.84 276.13H596.65L591.34 290.76Q591.09 291.47 590.78 291.88Q590.47 292.28 589.96 292.44Q589.45 292.6 588.58 292.6H587.64V290.99H589.5L590.4 288.46L585.96 276.13H587.8L590.65 284.2L591.2 286.14H591.32ZM606.36 288 603.18 276.13H604.98L606.24 281.26L607.51 286.46H607.55L609 281.26L610.5 276.13H612.13L613.67 281.26L615.14 286.46H615.19L616.41 281.26L617.7 276.13H619.42L616.27 288H614L612.34 282.3L611.3 278.69H611.26L610.25 282.3L608.59 288ZM631.75 288H630.72Q629.98 288 629.52 287.69Q629.06 287.38 628.85 286.83Q628.65 286.27 628.65 285.56V285.4L629.36 286.07H628.55Q628.19 287.15 627.28 287.71Q626.37 288.28 625.13 288.28Q623.24 288.28 622.19 287.31Q621.15 286.34 621.15 284.69Q621.15 283.56 621.7 282.79Q622.25 282.02 623.37 281.62Q624.48 281.21 626.21 281.21H628.55V280.04Q628.55 278.78 627.86 278.11Q627.17 277.44 625.75 277.44Q624.69 277.44 623.95 277.93Q623.22 278.41 622.74 279.21L621.63 278.18Q622.11 277.24 623.17 276.55Q624.23 275.86 625.84 275.86Q627.98 275.86 629.19 276.91Q630.39 277.97 630.39 279.86V286.39H631.75ZM628.55 282.6H626.12Q624.55 282.6 623.82 283.06Q623.08 283.51 623.08 284.39V284.87Q623.08 285.75 623.72 286.23Q624.37 286.71 625.43 286.71Q626.35 286.71 627.05 286.42Q627.75 286.14 628.15 285.64Q628.55 285.15 628.55 284.55ZM637.96 288H636.33Q635.38 288 634.88 287.46Q634.37 286.92 634.37 286.09V270.98H636.21V286.39H637.96ZM644.22 288H642.58Q641.64 288 641.13 287.46Q640.63 286.92 640.63 286.09V270.98H642.47V286.39H644.22ZM651.35 288.28Q649.74 288.28 648.54 287.51Q647.34 286.74 646.68 285.34Q646.01 283.95 646.01 282.07Q646.01 280.18 646.68 278.79Q647.34 277.4 648.54 276.63Q649.74 275.86 651.35 275.86Q652.93 275.86 654.08 276.6Q655.23 277.35 655.86 278.66Q656.48 279.97 656.48 281.65V282.53H647.94V283.08Q647.94 284.62 648.87 285.64Q649.81 286.67 651.46 286.67Q652.59 286.67 653.43 286.14Q654.27 285.61 654.73 284.62L656.04 285.56Q655.46 286.76 654.24 287.52Q653.03 288.28 651.35 288.28ZM651.35 277.4Q650.36 277.4 649.59 277.86Q648.82 278.32 648.38 279.13Q647.94 279.95 647.94 280.99V281.15H654.5V280.89Q654.5 279.83 654.11 279.05Q653.72 278.27 653 277.83Q652.29 277.4 651.35 277.4ZM664.43 288H662.13Q661.19 288 660.68 287.45Q660.18 286.9 660.18 286.05V277.74H658.22V276.13H659.33Q659.93 276.13 660.14 275.89Q660.36 275.65 660.36 275.05V272.84H662.02V276.13H664.62V277.74H662.02V286.39H664.43ZM673.93 273.35Q673.36 273.35 673.08 273.06Q672.81 272.77 672.81 272.31V272.01Q672.81 271.56 673.08 271.27Q673.36 270.98 673.93 270.98Q674.53 270.98 674.8 271.27Q675.06 271.56 675.06 272.01V272.31Q675.06 272.77 674.8 273.06Q674.53 273.35 673.93 273.35ZM673.01 288V276.13H674.85V288ZM682.33 288.28Q680.69 288.28 679.57 287.64Q678.44 287.01 677.64 285.95L678.95 284.89Q679.64 285.75 680.49 286.23Q681.34 286.71 682.47 286.71Q683.64 286.71 684.29 286.21Q684.95 285.7 684.95 284.78Q684.95 284.09 684.5 283.58Q684.05 283.08 682.88 282.92L681.94 282.78Q680.86 282.62 679.98 282.24Q679.11 281.86 678.61 281.16Q678.12 280.46 678.12 279.35Q678.12 277.58 679.33 276.72Q680.53 275.86 682.35 275.86Q683.32 275.86 684.06 276.09Q684.81 276.32 685.41 276.74Q686.01 277.17 686.49 277.76L685.27 278.87Q684.88 278.32 684.12 277.87Q683.36 277.42 682.21 277.42Q681.09 277.42 680.49 277.91Q679.89 278.41 679.89 279.26Q679.89 280.11 680.48 280.51Q681.06 280.92 682.17 281.1L683.09 281.24Q685.06 281.54 685.89 282.38Q686.72 283.22 686.72 284.57Q686.72 285.72 686.19 286.55Q685.66 287.38 684.67 287.83Q683.68 288.28 682.33 288.28ZM696.04 288V277.74H694.1V276.13H696.04V273.74Q696.04 272.52 696.68 271.75Q697.32 270.98 698.63 270.98H700.43V272.59H697.88V276.13H700.43V277.74H697.88V288ZM712.5 288H711.47Q710.73 288 710.27 287.69Q709.81 287.38 709.61 286.83Q709.4 286.27 709.4 285.56V285.4L710.11 286.07H709.31Q708.94 287.15 708.03 287.71Q707.12 288.28 705.88 288.28Q703.99 288.28 702.95 287.31Q701.9 286.34 701.9 284.69Q701.9 283.56 702.45 282.79Q703 282.02 704.12 281.62Q705.24 281.21 706.96 281.21H709.31V280.04Q709.31 278.78 708.62 278.11Q707.93 277.44 706.5 277.44Q705.44 277.44 704.71 277.93Q703.97 278.41 703.49 279.21L702.38 278.18Q702.87 277.24 703.92 276.55Q704.98 275.86 706.59 275.86Q708.73 275.86 709.94 276.91Q711.15 277.97 711.15 279.86V286.39H712.5ZM709.31 282.6H706.87Q705.3 282.6 704.57 283.06Q703.83 283.51 703.83 284.39V284.87Q703.83 285.75 704.48 286.23Q705.12 286.71 706.18 286.71Q707.1 286.71 707.8 286.42Q708.5 286.14 708.9 285.64Q709.31 285.15 709.31 284.55ZM716.97 288H715.13V276.13H716.97V278.32H717.08Q717.29 277.74 717.72 277.25Q718.16 276.75 718.85 276.44Q719.54 276.13 720.51 276.13H721.22V277.97H720.14Q719.15 277.97 718.44 278.24Q717.72 278.5 717.35 278.94Q716.97 279.38 716.97 279.95ZM725.41 288H723.57V276.13H725.41V278.06H725.5Q725.89 277.14 726.6 276.5Q727.32 275.86 728.7 275.86Q729.87 275.86 730.86 276.42Q731.85 276.98 732.33 278.27H732.38Q732.7 277.31 733.58 276.58Q734.47 275.86 735.99 275.86Q737.8 275.86 738.83 277.04Q739.85 278.23 739.85 280.39V288H738.01V280.71Q738.01 279.14 737.39 278.33Q736.77 277.51 735.41 277.51Q734.7 277.51 734.05 277.75Q733.41 278 733.02 278.5Q732.63 279.01 732.63 279.77V288H730.79V280.71Q730.79 279.12 730.17 278.32Q729.55 277.51 728.24 277.51Q727.52 277.51 726.87 277.75Q726.21 278 725.81 278.5Q725.41 279.01 725.41 279.77ZM744.57 273.35Q743.99 273.35 743.71 273.06Q743.44 272.77 743.44 272.31V272.01Q743.44 271.56 743.71 271.27Q743.99 270.98 744.57 270.98Q745.16 270.98 745.43 271.27Q745.69 271.56 745.69 272.01V272.31Q745.69 272.77 745.43 273.06Q745.16 273.35 744.57 273.35ZM743.65 288V276.13H745.49V288ZM751.24 288H749.4V276.13H751.24V278.06H751.33Q751.76 277.05 752.56 276.45Q753.35 275.86 754.69 275.86Q756.53 275.86 757.6 277.04Q758.66 278.23 758.66 280.39V288H756.82V280.71Q756.82 279.12 756.15 278.32Q755.47 277.51 754.13 277.51Q753.4 277.51 752.73 277.75Q752.06 278 751.65 278.5Q751.24 279.01 751.24 279.77ZM772.46 289.31Q772.46 290.53 771.82 291.32Q771.18 292.12 769.9 292.5Q768.62 292.88 766.71 292.88Q764.87 292.88 763.71 292.53Q762.55 292.19 762.02 291.53Q761.49 290.88 761.49 289.95Q761.49 288.99 762 288.44Q762.51 287.88 763.38 287.65V287.4Q762.87 287.15 762.6 286.75Q762.32 286.34 762.32 285.75Q762.32 284.85 762.9 284.38Q763.47 283.91 764.37 283.68V283.58Q763.31 283.08 762.72 282.13Q762.14 281.19 762.14 279.95Q762.14 278.73 762.69 277.81Q763.24 276.89 764.25 276.37Q765.27 275.86 766.6 275.86Q767.24 275.86 767.81 275.97Q768.37 276.09 768.85 276.32V276.11Q768.85 275.42 769.18 274.97Q769.5 274.52 770.23 274.52H772V276.13H769.75V276.89Q770.39 277.44 770.75 278.23Q771.11 279.01 771.11 279.95Q771.11 281.15 770.56 282.08Q770 283.01 768.99 283.53Q767.98 284.04 766.62 284.04Q766.32 284.04 766.02 284.01Q765.73 283.98 765.47 283.93Q764.9 284.09 764.4 284.4Q763.91 284.71 763.91 285.26Q763.91 285.79 764.41 285.98Q764.92 286.16 765.73 286.16H768.26Q770.46 286.16 771.46 287Q772.46 287.84 772.46 289.31ZM770.74 289.45Q770.74 288.74 770.2 288.31Q769.66 287.88 768.28 287.88H764.32Q763.75 288.14 763.48 288.54Q763.22 288.94 763.22 289.5Q763.22 290.28 763.81 290.83Q764.39 291.38 765.79 291.38H767.5Q769.04 291.38 769.89 290.9Q770.74 290.42 770.74 289.45ZM766.62 282.57Q767.8 282.57 768.49 282.01Q769.18 281.44 769.18 280.27V279.63Q769.18 278.45 768.49 277.89Q767.8 277.33 766.62 277.33Q765.45 277.33 764.76 277.89Q764.07 278.45 764.07 279.63V280.27Q764.07 281.44 764.76 282.01Q765.45 282.57 766.62 282.57ZM775.78 285.31Q776.51 285.31 776.85 285.69Q777.18 286.07 777.18 286.67V286.99Q777.18 287.91 776.63 289.06Q776.08 290.21 775.09 291.06H773.55Q774.24 290.32 774.66 289.67Q775.09 289.01 775.27 288.21Q774.81 288.09 774.59 287.77Q774.37 287.45 774.37 286.99V286.67Q774.37 286.07 774.72 285.69Q775.06 285.31 775.78 285.31ZM791.21 288H788.91Q787.97 288 787.46 287.45Q786.95 286.9 786.95 286.05V277.74H785V276.13H786.1Q786.7 276.13 786.92 275.89Q787.14 275.65 787.14 275.05V272.84H788.79V276.13H791.39V277.74H788.79V286.39H791.21ZM804.02 288H802.99Q802.25 288 801.79 287.69Q801.33 287.38 801.12 286.83Q800.92 286.27 800.92 285.56V285.4L801.63 286.07H800.82Q800.46 287.15 799.55 287.71Q798.64 288.28 797.4 288.28Q795.51 288.28 794.46 287.31Q793.42 286.34 793.42 284.69Q793.42 283.56 793.97 282.79Q794.52 282.02 795.64 281.62Q796.75 281.21 798.48 281.21H800.82V280.04Q800.82 278.78 800.13 278.11Q799.44 277.44 798.02 277.44Q796.96 277.44 796.22 277.93Q795.49 278.41 795 279.21L793.9 278.18Q794.38 277.24 795.44 276.55Q796.5 275.86 798.11 275.86Q800.25 275.86 801.46 276.91Q802.66 277.97 802.66 279.86V286.39H804.02ZM800.82 282.6H798.39Q796.82 282.6 796.09 283.06Q795.35 283.51 795.35 284.39V284.87Q795.35 285.75 795.99 286.23Q796.64 286.71 797.7 286.71Q798.62 286.71 799.32 286.42Q800.02 286.14 800.42 285.64Q800.82 285.15 800.82 284.55ZM810.23 288H808.6Q807.65 288 807.15 287.46Q806.64 286.92 806.64 286.09V270.98H808.48V286.39H810.23ZM812.9 288V270.98H814.74V279.65V281.77H814.83L816.65 279.74L820.01 276.13H822.24L817.84 280.82L822.67 288H820.44L816.51 281.95L814.74 283.77V288ZM834.01 288.28Q832.38 288.28 831.25 287.64Q830.13 287.01 829.32 285.95L830.63 284.89Q831.32 285.75 832.17 286.23Q833.02 286.71 834.15 286.71Q835.32 286.71 835.98 286.21Q836.63 285.7 836.63 284.78Q836.63 284.09 836.19 283.58Q835.74 283.08 834.56 282.92L833.62 282.78Q832.54 282.62 831.67 282.24Q830.79 281.86 830.3 281.16Q829.8 280.46 829.8 279.35Q829.8 277.58 831.01 276.72Q832.22 275.86 834.04 275.86Q835 275.86 835.75 276.09Q836.5 276.32 837.09 276.74Q837.69 277.17 838.18 277.76L836.96 278.87Q836.57 278.32 835.81 277.87Q835.05 277.42 833.9 277.42Q832.77 277.42 832.17 277.91Q831.57 278.41 831.57 279.26Q831.57 280.11 832.16 280.51Q832.75 280.92 833.85 281.1L834.77 281.24Q836.75 281.54 837.58 282.38Q838.41 283.22 838.41 284.57Q838.41 285.72 837.88 286.55Q837.35 287.38 836.36 287.83Q835.37 288.28 834.01 288.28ZM846.57 288H844.27Q843.33 288 842.82 287.45Q842.32 286.9 842.32 286.05V277.74H840.36V276.13H841.46Q842.06 276.13 842.28 275.89Q842.5 275.65 842.5 275.05V272.84H844.16V276.13H846.75V277.74H844.16V286.39H846.57ZM851.56 288H849.72V276.13H851.56V278.32H851.68Q851.88 277.74 852.32 277.25Q852.76 276.75 853.45 276.44Q854.14 276.13 855.1 276.13H855.82V277.97H854.74Q853.75 277.97 853.03 278.24Q852.32 278.5 851.94 278.94Q851.56 279.38 851.56 279.95ZM867.82 288H866.79Q866.05 288 865.59 287.69Q865.13 287.38 864.92 286.83Q864.72 286.27 864.72 285.56V285.4L865.43 286.07H864.63Q864.26 287.15 863.35 287.71Q862.44 288.28 861.2 288.28Q859.31 288.28 858.27 287.31Q857.22 286.34 857.22 284.69Q857.22 283.56 857.77 282.79Q858.32 282.02 859.44 281.62Q860.55 281.21 862.28 281.21H864.63V280.04Q864.63 278.78 863.94 278.11Q863.25 277.44 861.82 277.44Q860.76 277.44 860.03 277.93Q859.29 278.41 858.81 279.21L857.7 278.18Q858.19 277.24 859.24 276.55Q860.3 275.86 861.91 275.86Q864.05 275.86 865.26 276.91Q866.47 277.97 866.47 279.86V286.39H867.82ZM864.63 282.6H862.19Q860.62 282.6 859.89 283.06Q859.15 283.51 859.15 284.39V284.87Q859.15 285.75 859.8 286.23Q860.44 286.71 861.5 286.71Q862.42 286.71 863.12 286.42Q863.82 286.14 864.22 285.64Q864.63 285.15 864.63 284.55ZM875.37 288H873.07Q872.12 288 871.62 287.45Q871.11 286.9 871.11 286.05V277.74H869.16V276.13H870.26Q870.86 276.13 871.08 275.89Q871.3 275.65 871.3 275.05V272.84H872.95V276.13H875.55V277.74H872.95V286.39H875.37ZM882.98 288.28Q881.37 288.28 880.17 287.51Q878.98 286.74 878.31 285.34Q877.64 283.95 877.64 282.07Q877.64 280.18 878.31 278.79Q878.98 277.4 880.17 276.63Q881.37 275.86 882.98 275.86Q884.57 275.86 885.72 276.6Q886.87 277.35 887.49 278.66Q888.11 279.97 888.11 281.65V282.53H879.58V283.08Q879.58 284.62 880.51 285.64Q881.44 286.67 883.09 286.67Q884.22 286.67 885.06 286.14Q885.9 285.61 886.36 284.62L887.67 285.56Q887.1 286.76 885.88 287.52Q884.66 288.28 882.98 288.28ZM882.98 277.4Q881.99 277.4 881.22 277.86Q880.45 278.32 880.01 279.13Q879.58 279.95 879.58 280.99V281.15H886.13V280.89Q886.13 279.83 885.74 279.05Q885.35 278.27 884.64 277.83Q883.92 277.4 882.98 277.4ZM901.15 289.31Q901.15 290.53 900.51 291.32Q899.86 292.12 898.59 292.5Q897.31 292.88 895.4 292.88Q893.56 292.88 892.4 292.53Q891.24 292.19 890.71 291.53Q890.18 290.88 890.18 289.95Q890.18 288.99 890.68 288.44Q891.19 287.88 892.06 287.65V287.4Q891.56 287.15 891.28 286.75Q891.01 286.34 891.01 285.75Q891.01 284.85 891.58 284.38Q892.16 283.91 893.05 283.68V283.58Q892 283.08 891.41 282.13Q890.82 281.19 890.82 279.95Q890.82 278.73 891.37 277.81Q891.93 276.89 892.94 276.37Q893.95 275.86 895.28 275.86Q895.93 275.86 896.49 275.97Q897.06 276.09 897.54 276.32V276.11Q897.54 275.42 897.86 274.97Q898.18 274.52 898.92 274.52H900.69V276.13H898.44V276.89Q899.08 277.44 899.44 278.23Q899.79 279.01 899.79 279.95Q899.79 281.15 899.24 282.08Q898.69 283.01 897.68 283.53Q896.66 284.04 895.31 284.04Q895.01 284.04 894.71 284.01Q894.41 283.98 894.16 283.93Q893.58 284.09 893.09 284.4Q892.59 284.71 892.59 285.26Q892.59 285.79 893.1 285.98Q893.61 286.16 894.41 286.16H896.94Q899.15 286.16 900.15 287Q901.15 287.84 901.15 289.31ZM899.42 289.45Q899.42 288.74 898.88 288.31Q898.34 287.88 896.96 287.88H893.01Q892.43 288.14 892.17 288.54Q891.9 288.94 891.9 289.5Q891.9 290.28 892.49 290.83Q893.08 291.38 894.48 291.38H896.18Q897.72 291.38 898.57 290.9Q899.42 290.42 899.42 289.45ZM895.31 282.57Q896.48 282.57 897.17 282.01Q897.86 281.44 897.86 280.27V279.63Q897.86 278.45 897.17 277.89Q896.48 277.33 895.31 277.33Q894.13 277.33 893.44 277.89Q892.75 278.45 892.75 279.63V280.27Q892.75 281.44 893.44 282.01Q894.13 282.57 895.31 282.57ZM907.73 284.2 910.6 276.13H912.42L907.11 290.76Q906.85 291.47 906.54 291.88Q906.23 292.28 905.73 292.44Q905.22 292.6 904.35 292.6H903.4V290.99H905.27L906.16 288.46L901.72 276.13H903.56L906.42 284.2L906.97 286.14H907.08ZM924.68 288.28Q923.09 288.28 921.88 287.51Q920.68 286.74 920 285.34Q919.32 283.95 919.32 282.07Q919.32 280.18 920 278.79Q920.68 277.4 921.88 276.63Q923.09 275.86 924.68 275.86Q926.27 275.86 927.47 276.63Q928.68 277.4 929.36 278.79Q930.04 280.18 930.04 282.07Q930.04 283.95 929.36 285.34Q928.68 286.74 927.47 287.51Q926.27 288.28 924.68 288.28ZM924.68 286.64Q926.17 286.64 927.12 285.72Q928.06 284.8 928.06 282.92V281.21Q928.06 279.33 927.12 278.41Q926.17 277.49 924.68 277.49Q923.21 277.49 922.25 278.41Q921.3 279.33 921.3 281.21V282.92Q921.3 284.8 922.25 285.72Q923.21 286.64 924.68 286.64ZM934.91 288H933.07V276.13H934.91V278.06H935.01Q935.44 277.05 936.24 276.45Q937.03 275.86 938.36 275.86Q940.2 275.86 941.27 277.04Q942.34 278.23 942.34 280.39V288H940.5V280.71Q940.5 279.12 939.82 278.32Q939.15 277.51 937.81 277.51Q937.08 277.51 936.41 277.75Q935.74 278 935.33 278.5Q934.91 279.01 934.91 279.77ZM956.03 288.28Q954.42 288.28 953.22 287.51Q952.03 286.74 951.36 285.34Q950.69 283.95 950.69 282.07Q950.69 280.18 951.36 278.79Q952.03 277.4 953.22 276.63Q954.42 275.86 956.03 275.86Q957.61 275.86 958.76 276.6Q959.91 277.35 960.54 278.66Q961.16 279.97 961.16 281.65V282.53H952.62V283.08Q952.62 284.62 953.56 285.64Q954.49 286.67 956.14 286.67Q957.27 286.67 958.11 286.14Q958.95 285.61 959.41 284.62L960.72 285.56Q960.14 286.76 958.93 287.52Q957.71 288.28 956.03 288.28ZM956.03 277.4Q955.04 277.4 954.27 277.86Q953.5 278.32 953.06 279.13Q952.62 279.95 952.62 280.99V281.15H959.18V280.89Q959.18 279.83 958.79 279.05Q958.4 278.27 957.68 277.83Q956.97 277.4 956.03 277.4ZM968.95 288H966.81L962.65 276.13H964.49L966.56 282.02L967.85 286.07H967.96L969.25 282.02L971.37 276.13H973.14ZM979.97 288.28Q978.36 288.28 977.16 287.51Q975.97 286.74 975.3 285.34Q974.63 283.95 974.63 282.07Q974.63 280.18 975.3 278.79Q975.97 277.4 977.16 276.63Q978.36 275.86 979.97 275.86Q981.56 275.86 982.71 276.6Q983.86 277.35 984.48 278.66Q985.1 279.97 985.1 281.65V282.53H976.57V283.08Q976.57 284.62 977.5 285.64Q978.43 286.67 980.09 286.67Q981.21 286.67 982.05 286.14Q982.89 285.61 983.35 284.62L984.66 285.56Q984.09 286.76 982.87 287.52Q981.65 288.28 979.97 288.28ZM979.97 277.4Q978.98 277.4 978.21 277.86Q977.44 278.32 977 279.13Q976.57 279.95 976.57 280.99V281.15H983.12V280.89Q983.12 279.83 982.73 279.05Q982.34 278.27 981.63 277.83Q980.91 277.4 979.97 277.4ZM989.98 288H988.14V276.13H989.98V278.32H990.09Q990.3 277.74 990.73 277.25Q991.17 276.75 991.86 276.44Q992.55 276.13 993.52 276.13H994.23V277.97H993.15Q992.16 277.97 991.45 278.24Q990.73 278.5 990.36 278.94Q989.98 279.38 989.98 279.95ZM1001.02 284.2 1003.89 276.13H1005.71L1000.39 290.76Q1000.14 291.47 999.83 291.88Q999.52 292.28 999.01 292.44Q998.51 292.6 997.63 292.6H996.69V290.99H998.55L999.45 288.46L995.01 276.13H996.85L999.7 284.2L1000.26 286.14H1000.37ZM1013.48 292.6V276.13H1015.32V278.06H1015.41Q1015.87 276.94 1016.77 276.4Q1017.67 275.86 1018.89 275.86Q1020.38 275.86 1021.46 276.62Q1022.54 277.37 1023.13 278.77Q1023.72 280.16 1023.72 282.07Q1023.72 283.95 1023.13 285.36Q1022.54 286.76 1021.46 287.52Q1020.38 288.28 1018.89 288.28Q1017.67 288.28 1016.81 287.72Q1015.94 287.17 1015.41 286.07H1015.32V292.6ZM1018.38 286.62Q1019.94 286.62 1020.84 285.64Q1021.74 284.67 1021.74 283.08V281.05Q1021.74 279.47 1020.84 278.49Q1019.94 277.51 1018.38 277.51Q1017.55 277.51 1016.85 277.81Q1016.15 278.11 1015.74 278.62Q1015.32 279.12 1015.32 279.79V284.2Q1015.32 284.96 1015.74 285.5Q1016.15 286.05 1016.85 286.33Q1017.55 286.62 1018.38 286.62ZM1031.31 288.28Q1029.72 288.28 1028.51 287.51Q1027.3 286.74 1026.63 285.34Q1025.95 283.95 1025.95 282.07Q1025.95 280.18 1026.63 278.79Q1027.3 277.4 1028.51 276.63Q1029.72 275.86 1031.31 275.86Q1032.89 275.86 1034.1 276.63Q1035.31 277.4 1035.99 278.79Q1036.67 280.18 1036.67 282.07Q1036.67 283.95 1035.99 285.34Q1035.31 286.74 1034.1 287.51Q1032.89 288.28 1031.31 288.28ZM1031.31 286.64Q1032.8 286.64 1033.74 285.72Q1034.69 284.8 1034.69 282.92V281.21Q1034.69 279.33 1033.74 278.41Q1032.8 277.49 1031.31 277.49Q1029.83 277.49 1028.88 278.41Q1027.93 279.33 1027.93 281.21V282.92Q1027.93 284.8 1028.88 285.72Q1029.83 286.64 1031.31 286.64ZM1044.19 288.28Q1042.6 288.28 1041.39 287.51Q1040.18 286.74 1039.51 285.34Q1038.83 283.95 1038.83 282.07Q1038.83 280.18 1039.51 278.79Q1040.18 277.4 1041.39 276.63Q1042.6 275.86 1044.19 275.86Q1045.77 275.86 1046.98 276.63Q1048.19 277.4 1048.87 278.79Q1049.55 280.18 1049.55 282.07Q1049.55 283.95 1048.87 285.34Q1048.19 286.74 1046.98 287.51Q1045.77 288.28 1044.19 288.28ZM1044.19 286.64Q1045.68 286.64 1046.62 285.72Q1047.57 284.8 1047.57 282.92V281.21Q1047.57 279.33 1046.62 278.41Q1045.68 277.49 1044.19 277.49Q1042.71 277.49 1041.76 278.41Q1040.81 279.33 1040.81 281.21V282.92Q1040.81 284.8 1041.76 285.72Q1042.71 286.64 1044.19 286.64ZM1056.17 288H1054.54Q1053.59 288 1053.09 287.46Q1052.58 286.92 1052.58 286.09V270.98H1054.42V286.39H1056.17ZM1060.01 285.31Q1060.75 285.31 1061.08 285.69Q1061.41 286.07 1061.41 286.67V286.99Q1061.41 287.91 1060.86 289.06Q1060.31 290.21 1059.32 291.06H1057.78Q1058.47 290.32 1058.9 289.67Q1059.32 289.01 1059.51 288.21Q1059.05 288.09 1058.83 287.77Q1058.61 287.45 1058.61 286.99V286.67Q1058.61 286.07 1058.95 285.69Q1059.3 285.31 1060.01 285.31Z" fill="#8a8a8a"/><path d="M451.62 322H450.58Q449.84 322 449.38 321.69Q448.92 321.38 448.72 320.83Q448.51 320.27 448.51 319.56V319.4L449.22 320.07H448.42Q448.05 321.15 447.14 321.71Q446.23 322.28 444.99 322.28Q443.11 322.28 442.06 321.31Q441.01 320.34 441.01 318.69Q441.01 317.56 441.56 316.79Q442.12 316.02 443.23 315.62Q444.35 315.21 446.07 315.21H448.42V314.04Q448.42 312.78 447.73 312.11Q447.04 311.44 445.61 311.44Q444.55 311.44 443.82 311.93Q443.08 312.41 442.6 313.21L441.5 312.18Q441.98 311.24 443.04 310.55Q444.09 309.86 445.7 309.86Q447.84 309.86 449.05 310.91Q450.26 311.97 450.26 313.86V320.39H451.62ZM448.42 316.6H445.98Q444.42 316.6 443.68 317.06Q442.94 317.51 442.94 318.39V318.87Q442.94 319.75 443.59 320.23Q444.23 320.71 445.29 320.71Q446.21 320.71 446.91 320.42Q447.61 320.14 448.02 319.64Q448.42 319.15 448.42 318.55ZM456.08 322H454.24V310.13H456.08V312.06H456.17Q456.61 311.05 457.4 310.45Q458.19 309.86 459.53 309.86Q461.37 309.86 462.44 311.04Q463.51 312.23 463.51 314.39V322H461.67V314.71Q461.67 313.12 460.99 312.32Q460.31 311.51 458.97 311.51Q458.24 311.51 457.57 311.75Q456.9 312 456.49 312.5Q456.08 313.01 456.08 313.77ZM474.89 322V320.07H474.8Q474.27 321.17 473.41 321.72Q472.55 322.28 471.33 322.28Q469.85 322.28 468.76 321.52Q467.67 320.76 467.08 319.36Q466.5 317.95 466.5 316.07Q466.5 314.16 467.08 312.77Q467.67 311.37 468.76 310.62Q469.85 309.86 471.33 309.86Q472.55 309.86 473.44 310.4Q474.34 310.94 474.8 312.06H474.89V304.98H476.73V322ZM471.83 320.62Q472.68 320.62 473.37 320.33Q474.06 320.05 474.48 319.5Q474.89 318.96 474.89 318.2V313.79Q474.89 313.12 474.48 312.62Q474.06 312.11 473.37 311.81Q472.68 311.51 471.83 311.51Q470.29 311.51 469.38 312.49Q468.47 313.47 468.47 315.05V317.08Q468.47 318.67 469.38 319.64Q470.29 320.62 471.83 320.62ZM490.48 322.28Q487.98 322.28 486.59 320.6Q485.19 318.92 485.19 316.07Q485.19 313.21 486.59 311.53Q487.98 309.86 490.48 309.86Q492.26 309.86 493.34 310.64Q494.42 311.42 494.92 312.64L493.38 313.42Q493.06 312.5 492.31 312Q491.57 311.49 490.48 311.49Q488.85 311.49 488.01 312.49Q487.17 313.49 487.17 315.05V317.08Q487.17 318.62 488.01 319.63Q488.85 320.64 490.48 320.64Q491.61 320.64 492.42 320.11Q493.22 319.58 493.7 318.57L495.04 319.47Q494.46 320.74 493.33 321.51Q492.19 322.28 490.48 322.28ZM501.23 322H499.59Q498.65 322 498.14 321.46Q497.64 320.92 497.64 320.09V304.98H499.48V320.39H501.23ZM504.81 307.35Q504.24 307.35 503.96 307.06Q503.69 306.77 503.69 306.31V306.01Q503.69 305.56 503.96 305.27Q504.24 304.98 504.81 304.98Q505.41 304.98 505.68 305.27Q505.94 305.56 505.94 306.01V306.31Q505.94 306.77 505.68 307.06Q505.41 307.35 504.81 307.35ZM503.89 322V310.13H505.73V322ZM511.48 322H509.64V310.13H511.48V312.06H511.58Q511.97 311.14 512.68 310.5Q513.39 309.86 514.77 309.86Q515.95 309.86 516.93 310.42Q517.92 310.98 518.41 312.27H518.45Q518.77 311.31 519.66 310.58Q520.55 309.86 522.06 309.86Q523.88 309.86 524.9 311.04Q525.93 312.23 525.93 314.39V322H524.09V314.71Q524.09 313.14 523.47 312.33Q522.85 311.51 521.49 311.51Q520.78 311.51 520.13 311.75Q519.49 312 519.1 312.5Q518.71 313.01 518.71 313.77V322H516.87V314.71Q516.87 313.12 516.24 312.32Q515.62 311.51 514.31 311.51Q513.6 311.51 512.94 311.75Q512.29 312 511.89 312.5Q511.48 313.01 511.48 313.77ZM529.72 322V304.98H531.56V312.06H531.65Q532.11 310.94 533.01 310.4Q533.91 309.86 535.13 309.86Q536.62 309.86 537.7 310.62Q538.78 311.37 539.37 312.77Q539.96 314.16 539.96 316.07Q539.96 317.95 539.37 319.36Q538.78 320.76 537.7 321.52Q536.62 322.28 535.13 322.28Q533.91 322.28 533.05 321.72Q532.18 321.17 531.65 320.07H531.56V322ZM534.62 320.62Q536.19 320.62 537.08 319.64Q537.98 318.67 537.98 317.08V315.05Q537.98 313.47 537.08 312.49Q536.19 311.51 534.62 311.51Q533.79 311.51 533.09 311.81Q532.39 312.11 531.98 312.62Q531.56 313.12 531.56 313.79V318.2Q531.56 318.96 531.98 319.5Q532.39 320.05 533.09 320.33Q533.79 320.62 534.62 320.62ZM558.15 322H557.12Q556.38 322 555.92 321.69Q555.46 321.38 555.25 320.83Q555.05 320.27 555.05 319.56V319.4L555.76 320.07H554.95Q554.59 321.15 553.68 321.71Q552.77 322.28 551.53 322.28Q549.64 322.28 548.59 321.31Q547.55 320.34 547.55 318.69Q547.55 317.56 548.1 316.79Q548.65 316.02 549.77 315.62Q550.88 315.21 552.61 315.21H554.95V314.04Q554.95 312.78 554.26 312.11Q553.57 311.44 552.15 311.44Q551.09 311.44 550.35 311.93Q549.62 312.41 549.13 313.21L548.03 312.18Q548.51 311.24 549.57 310.55Q550.63 309.86 552.24 309.86Q554.38 309.86 555.59 310.91Q556.79 311.97 556.79 313.86V320.39H558.15ZM554.95 316.6H552.52Q550.95 316.6 550.22 317.06Q549.48 317.51 549.48 318.39V318.87Q549.48 319.75 550.12 320.23Q550.77 320.71 551.83 320.71Q552.75 320.71 553.45 320.42Q554.15 320.14 554.55 319.64Q554.95 319.15 554.95 318.55ZM569.79 322H568.16Q567.21 322 566.71 321.46Q566.2 320.92 566.2 320.09V304.98H568.04V320.39H569.79ZM576.92 322.28Q575.31 322.28 574.11 321.51Q572.92 320.74 572.25 319.34Q571.58 317.95 571.58 316.07Q571.58 314.18 572.25 312.79Q572.92 311.4 574.11 310.63Q575.31 309.86 576.92 309.86Q578.51 309.86 579.66 310.6Q580.81 311.35 581.43 312.66Q582.05 313.97 582.05 315.65V316.53H573.51V317.08Q573.51 318.62 574.45 319.64Q575.38 320.67 577.03 320.67Q578.16 320.67 579 320.14Q579.84 319.61 580.3 318.62L581.61 319.56Q581.04 320.76 579.82 321.52Q578.6 322.28 576.92 322.28ZM576.92 311.4Q575.93 311.4 575.16 311.86Q574.39 312.32 573.95 313.13Q573.51 313.95 573.51 314.99V315.15H580.07V314.89Q580.07 313.83 579.68 313.05Q579.29 312.27 578.57 311.83Q577.86 311.4 576.92 311.4ZM594.74 322H593.71Q592.97 322 592.51 321.69Q592.05 321.38 591.85 320.83Q591.64 320.27 591.64 319.56V319.4L592.35 320.07H591.55Q591.18 321.15 590.27 321.71Q589.36 322.28 588.12 322.28Q586.23 322.28 585.19 321.31Q584.14 320.34 584.14 318.69Q584.14 317.56 584.69 316.79Q585.24 316.02 586.36 315.62Q587.48 315.21 589.2 315.21H591.55V314.04Q591.55 312.78 590.86 312.11Q590.17 311.44 588.74 311.44Q587.68 311.44 586.95 311.93Q586.21 312.41 585.73 313.21L584.62 312.18Q585.11 311.24 586.16 310.55Q587.22 309.86 588.83 309.86Q590.97 309.86 592.18 310.91Q593.39 311.97 593.39 313.86V320.39H594.74ZM591.55 316.6H589.11Q587.54 316.6 586.81 317.06Q586.07 317.51 586.07 318.39V318.87Q586.07 319.75 586.72 320.23Q587.36 320.71 588.42 320.71Q589.34 320.71 590.04 320.42Q590.74 320.14 591.14 319.64Q591.55 319.15 591.55 318.55ZM604.96 322V320.07H604.86Q604.33 321.17 603.47 321.72Q602.61 322.28 601.39 322.28Q599.92 322.28 598.83 321.52Q597.73 320.76 597.15 319.36Q596.56 317.95 596.56 316.07Q596.56 314.16 597.15 312.77Q597.73 311.37 598.83 310.62Q599.92 309.86 601.39 309.86Q602.61 309.86 603.51 310.4Q604.4 310.94 604.86 312.06H604.96V304.98H606.8V322ZM601.9 320.62Q602.75 320.62 603.44 320.33Q604.13 320.05 604.54 319.5Q604.96 318.96 604.96 318.2V313.79Q604.96 313.12 604.54 312.62Q604.13 312.11 603.44 311.81Q602.75 311.51 601.9 311.51Q600.36 311.51 599.45 312.49Q598.54 313.47 598.54 315.05V317.08Q598.54 318.67 599.45 319.64Q600.36 320.62 601.9 320.62ZM615.17 322.28Q613.56 322.28 612.36 321.51Q611.17 320.74 610.5 319.34Q609.83 317.95 609.83 316.07Q609.83 314.18 610.5 312.79Q611.17 311.4 612.36 310.63Q613.56 309.86 615.17 309.86Q616.75 309.86 617.9 310.6Q619.05 311.35 619.68 312.66Q620.3 313.97 620.3 315.65V316.53H611.76V317.08Q611.76 318.62 612.7 319.64Q613.63 320.67 615.28 320.67Q616.41 320.67 617.25 320.14Q618.09 319.61 618.55 318.62L619.86 319.56Q619.28 320.76 618.07 321.52Q616.85 322.28 615.17 322.28ZM615.17 311.4Q614.18 311.4 613.41 311.86Q612.64 312.32 612.2 313.13Q611.76 313.95 611.76 314.99V315.15H618.32V314.89Q618.32 313.83 617.93 313.05Q617.54 312.27 616.82 311.83Q616.11 311.4 615.17 311.4ZM625.17 322H623.33V310.13H625.17V312.32H625.29Q625.49 311.74 625.93 311.25Q626.37 310.75 627.06 310.44Q627.75 310.13 628.71 310.13H629.43V311.97H628.35Q627.36 311.97 626.64 312.24Q625.93 312.5 625.55 312.94Q625.17 313.38 625.17 313.95ZM631.77 322V304.98H633.61V312.06H633.71Q634.17 310.94 635.06 310.4Q635.96 309.86 637.18 309.86Q638.67 309.86 639.75 310.62Q640.84 311.37 641.42 312.77Q642.01 314.16 642.01 316.07Q642.01 317.95 641.42 319.36Q640.84 320.76 639.75 321.52Q638.67 322.28 637.18 322.28Q635.96 322.28 635.1 321.72Q634.24 321.17 633.71 320.07H633.61V322ZM636.67 320.62Q638.24 320.62 639.13 319.64Q640.03 318.67 640.03 317.08V315.05Q640.03 313.47 639.13 312.49Q638.24 311.51 636.67 311.51Q635.84 311.51 635.14 311.81Q634.44 312.11 634.03 312.62Q633.61 313.12 633.61 313.79V318.2Q633.61 318.96 634.03 319.5Q634.44 320.05 635.14 320.33Q635.84 320.62 636.67 320.62ZM649.6 322.28Q648.01 322.28 646.8 321.51Q645.6 320.74 644.92 319.34Q644.24 317.95 644.24 316.07Q644.24 314.18 644.92 312.79Q645.6 311.4 646.8 310.63Q648.01 309.86 649.6 309.86Q651.19 309.86 652.39 310.63Q653.6 311.4 654.28 312.79Q654.96 314.18 654.96 316.07Q654.96 317.95 654.28 319.34Q653.6 320.74 652.39 321.51Q651.19 322.28 649.6 322.28ZM649.6 320.64Q651.09 320.64 652.04 319.72Q652.98 318.8 652.98 316.92V315.21Q652.98 313.33 652.04 312.41Q651.09 311.49 649.6 311.49Q648.13 311.49 647.17 312.41Q646.22 313.33 646.22 315.21V316.92Q646.22 318.8 647.17 319.72Q648.13 320.64 649.6 320.64ZM667.65 322H666.62Q665.88 322 665.42 321.69Q664.96 321.38 664.76 320.83Q664.55 320.27 664.55 319.56V319.4L665.26 320.07H664.46Q664.09 321.15 663.18 321.71Q662.27 322.28 661.03 322.28Q659.14 322.28 658.1 321.31Q657.05 320.34 657.05 318.69Q657.05 317.56 657.6 316.79Q658.15 316.02 659.27 315.62Q660.39 315.21 662.11 315.21H664.46V314.04Q664.46 312.78 663.77 312.11Q663.08 311.44 661.65 311.44Q660.59 311.44 659.86 311.93Q659.12 312.41 658.64 313.21L657.53 312.18Q658.02 311.24 659.08 310.55Q660.13 309.86 661.74 309.86Q663.88 309.86 665.09 310.91Q666.3 311.97 666.3 313.86V320.39H667.65ZM664.46 316.6H662.02Q660.46 316.6 659.72 317.06Q658.98 317.51 658.98 318.39V318.87Q658.98 319.75 659.63 320.23Q660.27 320.71 661.33 320.71Q662.25 320.71 662.95 320.42Q663.65 320.14 664.05 319.64Q664.46 319.15 664.46 318.55ZM672.12 322H670.28V310.13H672.12V312.32H672.23Q672.44 311.74 672.88 311.25Q673.31 310.75 674 310.44Q674.69 310.13 675.66 310.13H676.37V311.97H675.29Q674.3 311.97 673.59 312.24Q672.88 312.5 672.5 312.94Q672.12 313.38 672.12 313.95ZM686.31 322V320.07H686.22Q685.69 321.17 684.82 321.72Q683.96 322.28 682.74 322.28Q681.27 322.28 680.18 321.52Q679.09 320.76 678.5 319.36Q677.91 317.95 677.91 316.07Q677.91 314.16 678.5 312.77Q679.09 311.37 680.18 310.62Q681.27 309.86 682.74 309.86Q683.96 309.86 684.86 310.4Q685.76 310.94 686.22 312.06H686.31V304.98H688.15V322ZM683.25 320.62Q684.1 320.62 684.79 320.33Q685.48 320.05 685.89 319.5Q686.31 318.96 686.31 318.2V313.79Q686.31 313.12 685.89 312.62Q685.48 312.11 684.79 311.81Q684.1 311.51 683.25 311.51Q681.71 311.51 680.8 312.49Q679.89 313.47 679.89 315.05V317.08Q679.89 318.67 680.8 319.64Q681.71 320.62 683.25 320.62ZM701.97 322.28Q700.38 322.28 699.18 321.51Q697.97 320.74 697.29 319.34Q696.61 317.95 696.61 316.07Q696.61 314.18 697.29 312.79Q697.97 311.4 699.18 310.63Q700.38 309.86 701.97 309.86Q703.56 309.86 704.76 310.63Q705.97 311.4 706.65 312.79Q707.33 314.18 707.33 316.07Q707.33 317.95 706.65 319.34Q705.97 320.74 704.76 321.51Q703.56 322.28 701.97 322.28ZM701.97 320.64Q703.47 320.64 704.41 319.72Q705.35 318.8 705.35 316.92V315.21Q705.35 313.33 704.41 312.41Q703.47 311.49 701.97 311.49Q700.5 311.49 699.54 312.41Q698.59 313.33 698.59 315.21V316.92Q698.59 318.8 699.54 319.72Q700.5 320.64 701.97 320.64ZM711.01 322V311.74H709.08V310.13H711.01V307.74Q711.01 306.52 711.65 305.75Q712.3 304.98 713.61 304.98H715.4V306.59H712.85V310.13H715.4V311.74H712.85V322ZM727.68 318.2 730.56 310.13H732.38L727.06 324.76Q726.81 325.47 726.5 325.88Q726.19 326.28 725.68 326.44Q725.18 326.6 724.3 326.6H723.36V324.99H725.22L726.12 322.46L721.68 310.13H723.52L726.37 318.2L726.93 320.14H727.04ZM735.64 307.35Q735.07 307.35 734.79 307.06Q734.52 306.77 734.52 306.31V306.01Q734.52 305.56 734.79 305.27Q735.07 304.98 735.64 304.98Q736.24 304.98 736.5 305.27Q736.77 305.56 736.77 306.01V306.31Q736.77 306.77 736.5 307.06Q736.24 307.35 735.64 307.35ZM734.72 322V310.13H736.56V322ZM744.93 322.28Q743.32 322.28 742.13 321.51Q740.93 320.74 740.27 319.34Q739.6 317.95 739.6 316.07Q739.6 314.18 740.27 312.79Q740.93 311.4 742.13 310.63Q743.32 309.86 744.93 309.86Q746.52 309.86 747.67 310.6Q748.82 311.35 749.44 312.66Q750.06 313.97 750.06 315.65V316.53H741.53V317.08Q741.53 318.62 742.46 319.64Q743.39 320.67 745.05 320.67Q746.18 320.67 747.02 320.14Q747.86 319.61 748.32 318.62L749.63 319.56Q749.05 320.76 747.83 321.52Q746.61 322.28 744.93 322.28ZM744.93 311.4Q743.95 311.4 743.17 311.86Q742.4 312.32 741.97 313.13Q741.53 313.95 741.53 314.99V315.15H748.09V314.89Q748.09 313.83 747.69 313.05Q747.3 312.27 746.59 311.83Q745.88 311.4 744.93 311.4ZM756.69 322H755.05Q754.11 322 753.61 321.46Q753.1 320.92 753.1 320.09V304.98H754.94V320.39H756.69ZM766.94 322V320.07H766.85Q766.32 321.17 765.46 321.72Q764.6 322.28 763.38 322.28Q761.91 322.28 760.82 321.52Q759.72 320.76 759.14 319.36Q758.55 317.95 758.55 316.07Q758.55 314.16 759.14 312.77Q759.72 311.37 760.82 310.62Q761.91 309.86 763.38 309.86Q764.6 309.86 765.5 310.4Q766.39 310.94 766.85 312.06H766.94V304.98H768.78V322ZM763.89 320.62Q764.74 320.62 765.43 320.33Q766.12 320.05 766.53 319.5Q766.94 318.96 766.94 318.2V313.79Q766.94 313.12 766.53 312.62Q766.12 312.11 765.43 311.81Q764.74 311.51 763.89 311.51Q762.35 311.51 761.44 312.49Q760.53 313.47 760.53 315.05V317.08Q760.53 318.67 761.44 319.64Q762.35 320.62 763.89 320.62ZM783.04 322H780.75Q779.8 322 779.3 321.45Q778.79 320.9 778.79 320.05V311.74H776.84V310.13H777.94Q778.54 310.13 778.76 309.89Q778.97 309.65 778.97 309.05V306.84H780.63V310.13H783.23V311.74H780.63V320.39H783.04ZM786.2 322V304.98H788.04V312.06H788.13Q788.56 311.05 789.36 310.45Q790.15 309.86 791.49 309.86Q793.33 309.86 794.4 311.04Q795.47 312.23 795.47 314.39V322H793.62V314.71Q793.62 313.12 792.95 312.32Q792.27 311.51 790.93 311.51Q790.2 311.51 789.53 311.75Q788.86 312 788.45 312.5Q788.04 313.01 788.04 313.77V322ZM803.72 322.28Q802.11 322.28 800.92 321.51Q799.72 320.74 799.05 319.34Q798.39 317.95 798.39 316.07Q798.39 314.18 799.05 312.79Q799.72 311.4 800.92 310.63Q802.11 309.86 803.72 309.86Q805.31 309.86 806.46 310.6Q807.61 311.35 808.23 312.66Q808.85 313.97 808.85 315.65V316.53H800.32V317.08Q800.32 318.62 801.25 319.64Q802.18 320.67 803.84 320.67Q804.96 320.67 805.8 320.14Q806.64 319.61 807.1 318.62L808.41 319.56Q807.84 320.76 806.62 321.52Q805.4 322.28 803.72 322.28ZM803.72 311.4Q802.73 311.4 801.96 311.86Q801.19 312.32 800.75 313.13Q800.32 313.95 800.32 314.99V315.15H806.87V314.89Q806.87 313.83 806.48 313.05Q806.09 312.27 805.38 311.83Q804.66 311.4 803.72 311.4ZM821.73 322.28Q819.22 322.28 817.83 320.6Q816.44 318.92 816.44 316.07Q816.44 313.21 817.83 311.53Q819.22 309.86 821.73 309.86Q823.5 309.86 824.58 310.64Q825.66 311.42 826.17 312.64L824.63 313.42Q824.31 312.5 823.56 312Q822.81 311.49 821.73 311.49Q820.1 311.49 819.26 312.49Q818.42 313.49 818.42 315.05V317.08Q818.42 318.62 819.26 319.63Q820.1 320.64 821.73 320.64Q822.86 320.64 823.66 320.11Q824.47 319.58 824.95 318.57L826.28 319.47Q825.71 320.74 824.57 321.51Q823.43 322.28 821.73 322.28ZM828.88 322V304.98H830.72V312.06H830.82Q831.25 311.05 832.05 310.45Q832.84 309.86 834.17 309.86Q836.01 309.86 837.08 311.04Q838.15 312.23 838.15 314.39V322H836.31V314.71Q836.31 313.12 835.63 312.32Q834.96 311.51 833.62 311.51Q832.89 311.51 832.22 311.75Q831.55 312 831.14 312.5Q830.72 313.01 830.72 313.77V322ZM851.61 322H850.57Q849.84 322 849.38 321.69Q848.92 321.38 848.71 320.83Q848.5 320.27 848.5 319.56V319.4L849.22 320.07H848.41Q848.04 321.15 847.13 321.71Q846.23 322.28 844.98 322.28Q843.1 322.28 842.05 321.31Q841 320.34 841 318.69Q841 317.56 841.56 316.79Q842.11 316.02 843.22 315.62Q844.34 315.21 846.06 315.21H848.41V314.04Q848.41 312.78 847.72 312.11Q847.03 311.44 845.6 311.44Q844.55 311.44 843.81 311.93Q843.07 312.41 842.59 313.21L841.49 312.18Q841.97 311.24 843.03 310.55Q844.09 309.86 845.7 309.86Q847.84 309.86 849.04 310.91Q850.25 311.97 850.25 313.86V320.39H851.61ZM848.41 316.6H845.97Q844.41 316.6 843.67 317.06Q842.94 317.51 842.94 318.39V318.87Q842.94 319.75 843.58 320.23Q844.22 320.71 845.28 320.71Q846.2 320.71 846.9 320.42Q847.61 320.14 848.01 319.64Q848.41 319.15 848.41 318.55ZM855.15 307.35Q854.57 307.35 854.3 307.06Q854.02 306.77 854.02 306.31V306.01Q854.02 305.56 854.3 305.27Q854.57 304.98 855.15 304.98Q855.75 304.98 856.01 305.27Q856.28 305.56 856.28 306.01V306.31Q856.28 306.77 856.01 307.06Q855.75 307.35 855.15 307.35ZM854.23 322V310.13H856.07V322ZM861.82 322H859.98V310.13H861.82V312.06H861.91Q862.35 311.05 863.14 310.45Q863.94 309.86 865.27 309.86Q867.11 309.86 868.18 311.04Q869.25 312.23 869.25 314.39V322H867.41V314.71Q867.41 313.12 866.73 312.32Q866.05 311.51 864.72 311.51Q863.98 311.51 863.31 311.75Q862.65 312 862.23 312.5Q861.82 313.01 861.82 313.77ZM882.89 322.28Q880.38 322.28 878.99 320.6Q877.6 318.92 877.6 316.07Q877.6 313.21 878.99 311.53Q880.38 309.86 882.89 309.86Q884.66 309.86 885.74 310.64Q886.82 311.42 887.33 312.64L885.79 313.42Q885.46 312.5 884.72 312Q883.97 311.49 882.89 311.49Q881.25 311.49 880.42 312.49Q879.58 313.49 879.58 315.05V317.08Q879.58 318.62 880.42 319.63Q881.25 320.64 882.89 320.64Q884.01 320.64 884.82 320.11Q885.62 319.58 886.11 318.57L887.44 319.47Q886.87 320.74 885.73 321.51Q884.59 322.28 882.89 322.28ZM899.7 322H898.67Q897.93 322 897.47 321.69Q897.01 321.38 896.8 320.83Q896.6 320.27 896.6 319.56V319.4L897.31 320.07H896.5Q896.14 321.15 895.23 321.71Q894.32 322.28 893.08 322.28Q891.19 322.28 890.14 321.31Q889.1 320.34 889.1 318.69Q889.1 317.56 889.65 316.79Q890.2 316.02 891.32 315.62Q892.43 315.21 894.16 315.21H896.5V314.04Q896.5 312.78 895.81 312.11Q895.12 311.44 893.7 311.44Q892.64 311.44 891.9 311.93Q891.17 312.41 890.68 313.21L889.58 312.18Q890.06 311.24 891.12 310.55Q892.18 309.86 893.79 309.86Q895.93 309.86 897.14 310.91Q898.34 311.97 898.34 313.86V320.39H899.7ZM896.5 316.6H894.07Q892.5 316.6 891.77 317.06Q891.03 317.51 891.03 318.39V318.87Q891.03 319.75 891.67 320.23Q892.32 320.71 893.38 320.71Q894.3 320.71 895 320.42Q895.7 320.14 896.1 319.64Q896.5 319.15 896.5 318.55ZM904.16 322H902.32V310.13H904.16V312.06H904.25Q904.69 311.05 905.49 310.45Q906.28 309.86 907.61 309.86Q909.45 309.86 910.52 311.04Q911.59 312.23 911.59 314.39V322H909.75V314.71Q909.75 313.12 909.07 312.32Q908.39 311.51 907.06 311.51Q906.32 311.51 905.66 311.75Q904.99 312 904.58 312.5Q904.16 313.01 904.16 313.77ZM920.81 326.6V310.13H922.65V312.06H922.75Q923.21 310.94 924.1 310.4Q925 309.86 926.22 309.86Q927.71 309.86 928.8 310.62Q929.88 311.37 930.46 312.77Q931.05 314.16 931.05 316.07Q931.05 317.95 930.46 319.36Q929.88 320.76 928.8 321.52Q927.71 322.28 926.22 322.28Q925 322.28 924.14 321.72Q923.28 321.17 922.75 320.07H922.65V326.6ZM925.71 320.62Q927.28 320.62 928.17 319.64Q929.07 318.67 929.07 317.08V315.05Q929.07 313.47 928.17 312.49Q927.28 311.51 925.71 311.51Q924.89 311.51 924.18 311.81Q923.48 312.11 923.07 312.62Q922.65 313.12 922.65 313.79V318.2Q922.65 318.96 923.07 319.5Q923.48 320.05 924.18 320.33Q924.89 320.62 925.71 320.62ZM935.99 322H934.15V310.13H935.99V312.32H936.11Q936.32 311.74 936.75 311.25Q937.19 310.75 937.88 310.44Q938.57 310.13 939.54 310.13H940.25V311.97H939.17Q938.18 311.97 937.47 312.24Q936.75 312.5 936.37 312.94Q935.99 313.38 935.99 313.95ZM947.08 322.28Q945.49 322.28 944.29 321.51Q943.08 320.74 942.4 319.34Q941.72 317.95 941.72 316.07Q941.72 314.18 942.4 312.79Q943.08 311.4 944.29 310.63Q945.49 309.86 947.08 309.86Q948.67 309.86 949.88 310.63Q951.08 311.4 951.76 312.79Q952.44 314.18 952.44 316.07Q952.44 317.95 951.76 319.34Q951.08 320.74 949.88 321.51Q948.67 322.28 947.08 322.28ZM947.08 320.64Q948.58 320.64 949.52 319.72Q950.46 318.8 950.46 316.92V315.21Q950.46 313.33 949.52 312.41Q948.58 311.49 947.08 311.49Q945.61 311.49 944.65 312.41Q943.7 313.33 943.7 315.21V316.92Q943.7 318.8 944.65 319.72Q945.61 320.64 947.08 320.64ZM960.24 322H958.1L953.93 310.13H955.77L957.84 316.02L959.13 320.07H959.25L960.54 316.02L962.65 310.13H964.42ZM971.25 322.28Q969.64 322.28 968.45 321.51Q967.25 320.74 966.58 319.34Q965.92 317.95 965.92 316.07Q965.92 314.18 966.58 312.79Q967.25 311.4 968.45 310.63Q969.64 309.86 971.25 309.86Q972.84 309.86 973.99 310.6Q975.14 311.35 975.76 312.66Q976.38 313.97 976.38 315.65V316.53H967.85V317.08Q967.85 318.62 968.78 319.64Q969.71 320.67 971.37 320.67Q972.5 320.67 973.34 320.14Q974.17 319.61 974.63 318.62L975.95 319.56Q975.37 320.76 974.15 321.52Q972.93 322.28 971.25 322.28ZM971.25 311.4Q970.26 311.4 969.49 311.86Q968.72 312.32 968.29 313.13Q967.85 313.95 967.85 314.99V315.15H974.4V314.89Q974.4 313.83 974.01 313.05Q973.62 312.27 972.91 311.83Q972.2 311.4 971.25 311.4ZM980.59 322.28Q979.88 322.28 979.53 321.9Q979.19 321.52 979.19 320.94V320.64Q979.19 320.05 979.53 319.68Q979.88 319.31 980.59 319.31Q981.33 319.31 981.66 319.68Q981.99 320.05 981.99 320.64V320.94Q981.99 321.52 981.66 321.9Q981.33 322.28 980.59 322.28Z" fill="#8a8a8a"/><rect x="440" y="372" width="72" height="3" fill="#7ce9f5"/></svg>